<svg width="197" height="362" viewBox="0 0 197 362" fill="none" xmlns="http://www.w3.org/2000/svg">
<g opacity="0.2">
<path d="M186.109 22.082C180.303 22.082 175.568 17.3739 175.568 11.541C175.568 5.70814 180.276 1 186.109 1C191.916 1 196.65 5.70814 196.65 11.541C196.65 17.3739 191.942 22.082 186.109 22.082Z" fill="#FB8501"/>
<path d="M186.109 78.5801C180.303 78.5801 175.568 73.8719 175.568 68.0391C175.568 62.2323 180.276 57.498 186.109 57.498C191.916 57.498 196.65 62.2062 196.65 68.0391C196.65 73.8458 191.942 78.5801 186.109 78.5801Z" fill="#FB8501"/>
<path d="M186.109 135.077C180.303 135.077 175.568 130.369 175.568 124.536C175.568 118.704 180.276 113.995 186.109 113.995C191.916 113.995 196.65 118.704 196.65 124.536C196.65 130.369 191.942 135.077 186.109 135.077Z" fill="#FB8501"/>
<path d="M186.109 191.549C180.303 191.549 175.568 186.841 175.568 181.008C175.568 175.175 180.276 170.467 186.109 170.467C191.916 170.467 196.65 175.175 196.65 181.008C196.65 186.841 191.942 191.549 186.109 191.549Z" fill="#1D262D"/>
<path d="M186.109 248.047C180.303 248.047 175.568 243.339 175.568 237.506C175.568 231.699 180.276 226.965 186.109 226.965C191.916 226.965 196.65 231.673 196.65 237.506C196.65 243.339 191.942 248.047 186.109 248.047Z" fill="#FB8501"/>
<path d="M186.109 304.545C180.303 304.545 175.568 299.837 175.568 294.004C175.568 288.171 180.276 283.463 186.109 283.463C191.916 283.463 196.65 288.171 196.65 294.004C196.65 299.837 191.942 304.545 186.109 304.545Z" fill="#FB8501"/>
<path d="M186.109 361.043C180.303 361.043 175.568 356.335 175.568 350.502C175.568 344.669 180.276 339.961 186.109 339.961C191.916 339.961 196.65 344.669 196.65 350.502C196.65 356.335 191.942 361.043 186.109 361.043Z" fill="#1D262D"/>
<path d="M142.479 22.082C148.3 22.082 153.02 17.3627 153.02 11.541C153.02 5.71937 148.3 1 142.479 1C136.657 1 131.938 5.71937 131.938 11.541C131.938 17.3627 136.657 22.082 142.479 22.082Z" fill="#FB8501"/>
<path d="M142.479 78.5801C136.672 78.5801 131.938 73.8719 131.938 68.0391C131.938 62.2323 136.646 57.498 142.479 57.498C148.285 57.498 153.02 62.2062 153.02 68.0391C153.02 73.8458 148.285 78.5801 142.479 78.5801Z" stroke="#FB8501" stroke-miterlimit="10"/>
<path d="M142.479 135.077C148.3 135.077 153.02 130.358 153.02 124.536C153.02 118.715 148.3 113.995 142.479 113.995C136.657 113.995 131.938 118.715 131.938 124.536C131.938 130.358 136.657 135.077 142.479 135.077Z" fill="#FB8501"/>
<path d="M142.479 191.575C148.3 191.575 153.02 186.856 153.02 181.034C153.02 175.213 148.3 170.493 142.479 170.493C136.657 170.493 131.938 175.213 131.938 181.034C131.938 186.856 136.657 191.575 142.479 191.575Z" fill="#FB8501"/>
<path d="M142.479 248.047C136.672 248.047 131.938 243.339 131.938 237.506C131.938 231.699 136.646 226.965 142.479 226.965C148.285 226.965 153.02 231.673 153.02 237.506C153.02 243.339 148.285 248.047 142.479 248.047Z" fill="#FB8501"/>
<path d="M142.479 304.571C148.3 304.571 153.02 299.851 153.02 294.03C153.02 288.208 148.3 283.489 142.479 283.489C136.657 283.489 131.938 288.208 131.938 294.03C131.938 299.851 136.657 304.571 142.479 304.571Z" stroke="#FB8501" stroke-miterlimit="10"/>
<path d="M142.479 361.069C148.3 361.069 153.02 356.349 153.02 350.528C153.02 344.706 148.3 339.987 142.479 339.987C136.657 339.987 131.938 344.706 131.938 350.528C131.938 356.349 136.657 361.069 142.479 361.069Z" fill="#FB8501"/>
<path d="M98.8251 22.082C104.647 22.082 109.366 17.3627 109.366 11.541C109.366 5.71937 104.647 1 98.8251 1C93.0034 1 88.2841 5.71937 88.2841 11.541C88.2841 17.3627 93.0034 22.082 98.8251 22.082Z" fill="#FB8501"/>
<path d="M98.8251 78.5801C93.0184 78.5801 88.2841 73.8719 88.2841 68.0391C88.2841 62.2323 92.9922 57.498 98.8251 57.498C104.658 57.498 109.366 62.2062 109.366 68.0391C109.366 73.8458 104.658 78.5801 98.8251 78.5801Z" fill="#FB8501"/>
<path d="M98.8251 135.077C104.647 135.077 109.366 130.358 109.366 124.536C109.366 118.715 104.647 113.995 98.8251 113.995C93.0034 113.995 88.2841 118.715 88.2841 124.536C88.2841 130.358 93.0034 135.077 98.8251 135.077Z" fill="#FB8501"/>
<path d="M98.8251 191.575C104.647 191.575 109.366 186.856 109.366 181.034C109.366 175.213 104.647 170.493 98.8251 170.493C93.0034 170.493 88.2841 175.213 88.2841 181.034C88.2841 186.856 93.0034 191.575 98.8251 191.575Z" fill="#FB8501"/>
<path d="M98.8251 248.047C93.0184 248.047 88.2841 243.339 88.2841 237.506C88.2841 231.699 92.9922 226.965 98.8251 226.965C104.658 226.965 109.366 231.673 109.366 237.506C109.366 243.339 104.658 248.047 98.8251 248.047Z" fill="#1D262D"/>
<path d="M98.8251 304.571C104.647 304.571 109.366 299.851 109.366 294.03C109.366 288.208 104.647 283.489 98.8251 283.489C93.0034 283.489 88.2841 288.208 88.2841 294.03C88.2841 299.851 93.0034 304.571 98.8251 304.571Z" fill="#FB8501"/>
<path d="M98.8251 361.069C104.647 361.069 109.366 356.349 109.366 350.528C109.366 344.706 104.647 339.987 98.8251 339.987C93.0034 339.987 88.2841 344.706 88.2841 350.528C88.2841 356.349 93.0034 361.069 98.8251 361.069Z" fill="#FB8501"/>
<path d="M55.1691 22.082C60.9907 22.082 65.7101 17.3627 65.7101 11.541C65.7101 5.71937 60.9907 1 55.1691 1C49.3474 1 44.6281 5.71937 44.6281 11.541C44.6281 17.3627 49.3474 22.082 55.1691 22.082Z" fill="#FB8501"/>
<path d="M55.1691 78.5801C49.3624 78.5801 44.6281 73.8719 44.6281 68.0391C44.6281 62.2323 49.3362 57.498 55.1691 57.498C61.0019 57.498 65.7101 62.2062 65.7101 68.0391C65.7101 73.8458 61.0019 78.5801 55.1691 78.5801Z" fill="#1D262D"/>
<path d="M55.1691 135.077C60.9907 135.077 65.7101 130.358 65.7101 124.536C65.7101 118.715 60.9907 113.995 55.1691 113.995C49.3474 113.995 44.6281 118.715 44.6281 124.536C44.6281 130.358 49.3474 135.077 55.1691 135.077Z" fill="#FB8501"/>
<path d="M55.1691 191.575C60.9907 191.575 65.7101 186.856 65.7101 181.034C65.7101 175.213 60.9907 170.493 55.1691 170.493C49.3474 170.493 44.6281 175.213 44.6281 181.034C44.6281 186.856 49.3474 191.575 55.1691 191.575Z" stroke="#FB8501" stroke-miterlimit="10"/>
<path d="M55.1691 248.047C49.3624 248.047 44.6281 243.339 44.6281 237.506C44.6281 231.699 49.3362 226.965 55.1691 226.965C61.0019 226.965 65.7101 231.673 65.7101 237.506C65.7101 243.339 61.0019 248.047 55.1691 248.047Z" fill="#FB8501"/>
<path d="M55.1691 304.571C60.9907 304.571 65.7101 299.851 65.7101 294.03C65.7101 288.208 60.9907 283.489 55.1691 283.489C49.3474 283.489 44.6281 288.208 44.6281 294.03C44.6281 299.851 49.3474 304.571 55.1691 304.571Z" fill="#FB8501"/>
<path d="M55.1691 361.069C60.9907 361.069 65.7101 356.349 65.7101 350.528C65.7101 344.706 60.9907 339.987 55.1691 339.987C49.3474 339.987 44.6281 344.706 44.6281 350.528C44.6281 356.349 49.3474 361.069 55.1691 361.069Z" fill="#FB8501"/>
<path d="M11.541 22.082C17.3627 22.082 22.082 17.3627 22.082 11.541C22.082 5.71937 17.3627 1 11.541 1C5.71937 1 1 5.71937 1 11.541C1 17.3627 5.71937 22.082 11.541 22.082Z" stroke="#FB8501" stroke-miterlimit="10"/>
<path d="M11.541 78.5801C5.7343 78.5801 1 73.8719 1 68.0391C1 62.2323 5.70814 57.498 11.541 57.498C17.3477 57.498 22.082 62.2062 22.082 68.0391C22.082 73.8458 17.3477 78.5801 11.541 78.5801Z" fill="#FB8501"/>
<path d="M11.541 135.077C17.3627 135.077 22.082 130.358 22.082 124.536C22.082 118.715 17.3627 113.995 11.541 113.995C5.71937 113.995 1 118.715 1 124.536C1 130.358 5.71937 135.077 11.541 135.077Z" fill="#FB8501"/>
<path d="M11.541 191.575C17.3627 191.575 22.082 186.856 22.082 181.034C22.082 175.213 17.3627 170.493 11.541 170.493C5.71937 170.493 1 175.213 1 181.034C1 186.856 5.71937 191.575 11.541 191.575Z" fill="#FB8501"/>
<path d="M11.541 248.047C5.7343 248.047 1 243.339 1 237.506C1 231.699 5.70814 226.965 11.541 226.965C17.3477 226.965 22.082 231.673 22.082 237.506C22.082 243.339 17.3477 248.047 11.541 248.047Z" fill="#FB8501"/>
<path d="M11.541 304.571C17.3627 304.571 22.082 299.851 22.082 294.03C22.082 288.208 17.3627 283.489 11.541 283.489C5.71937 283.489 1 288.208 1 294.03C1 299.851 5.71937 304.571 11.541 304.571Z" fill="#FB8501"/>
<path d="M11.541 361.069C17.3627 361.069 22.082 356.349 22.082 350.528C22.082 344.706 17.3627 339.987 11.541 339.987C5.71937 339.987 1 344.706 1 350.528C1 356.349 5.71937 361.069 11.541 361.069Z" fill="#FB8501"/>
</g>
</svg>
