<svg width="40" height="40" viewBox="0 0 40 40" fill="none" xmlns="http://www.w3.org/2000/svg">
<g clip-path="url(#clip0_167_472)">
<path d="M6.66666 13.3332C6.66666 11.5651 7.36904 9.86937 8.61928 8.61913C9.86952 7.36888 11.5652 6.6665 13.3333 6.6665H26.6667C28.4348 6.6665 30.1305 7.36888 31.3807 8.61913C32.6309 9.86937 33.3333 11.5651 33.3333 13.3332V26.6665C33.3333 28.4346 32.6309 30.1303 31.3807 31.3805C30.1305 32.6308 28.4348 33.3332 26.6667 33.3332H13.3333C11.5652 33.3332 9.86952 32.6308 8.61928 31.3805C7.36904 30.1303 6.66666 28.4346 6.66666 26.6665V13.3332Z" stroke="#091747" stroke-width="2.5" stroke-linecap="round" stroke-linejoin="round"/>
<path d="M15 20C15 21.3261 15.5268 22.5979 16.4645 23.5355C17.4021 24.4732 18.6739 25 20 25C21.3261 25 22.5979 24.4732 23.5355 23.5355C24.4732 22.5979 25 21.3261 25 20C25 18.6739 24.4732 17.4021 23.5355 16.4645C22.5979 15.5268 21.3261 15 20 15C18.6739 15 17.4021 15.5268 16.4645 16.4645C15.5268 17.4021 15 18.6739 15 20Z" stroke="#091747" stroke-width="2.5" stroke-linecap="round" stroke-linejoin="round"/>
<path d="M27.5 12.5V12.5167" stroke="#091747" stroke-width="2.5" stroke-linecap="round" stroke-linejoin="round"/>
</g>
<defs>
<clipPath id="clip0_167_472">
<rect width="40" height="40" fill="white"/>
</clipPath>
</defs>
</svg>
