<svg width="229" height="68" viewBox="0 0 229 68" fill="none" xmlns="http://www.w3.org/2000/svg">
<path d="M24.7163 68C18.9531 68 14.2811 63.2315 14.2811 57.3493C14.2811 51.4671 18.9531 46.6987 24.7163 46.6987C26.8904 46.8694 30.069 47.518 34.5496 50.283C38.8641 52.9457 39.7672 53.2529 42.677 54.8915C48.597 57.0421 48.1956 49.3613 43.7807 52.5361C46.6906 39.8372 62.7448 50.998 49.8011 57.759C58.7312 57.759 60.5241 48.3372 55.8214 44.6505C48.898 39.2227 44.4162 45.2991 43.0784 48.6445C43.0784 40.9637 50.7947 32.3612 60.437 32.3612C70.0793 32.3612 77.896 40.3393 77.896 50.1806C77.896 60.022 70.0793 68 60.437 68C54.517 68 51.8079 66.5663 39.7672 59.5C35.5128 56.4686 31.0377 56.8804 28.8302 58.0662C25.0174 60.1144 26.1211 64.5181 29.5326 64.5181C28.5694 66.894 26.9238 68 24.7163 68Z" fill="#0B0F0E"/>
<path d="M50.8045 32.2588C35.3523 19.8672 20.7028 34.4094 22.4084 44.3431C28.5892 43.278 36.9576 48.064 40.3692 50.5902C40.0682 46.6987 41.3726 37.4818 50.8045 32.2588Z" fill="#0B0F0E"/>
<path d="M11.6254 11.927C11.0746 11.2052 11.2014 10.1644 11.9086 9.60225C12.6158 9.0401 13.6356 9.1695 14.1863 9.89128L17.139 13.7605C17.6897 14.4823 17.563 15.5232 16.8558 16.0853C16.1486 16.6475 15.1288 16.5181 14.578 15.7963L11.6254 11.927Z" fill="#0B0F0E"/>
<path d="M17.8872 19.9327C17.3364 19.2109 17.4632 18.1701 18.1704 17.608C18.8776 17.0458 19.8973 17.1752 20.4481 17.897L27.0908 26.6019C27.6416 27.3237 27.5148 28.3645 26.8076 28.9267C26.1004 29.4888 25.0807 29.3594 24.5299 28.6377L17.8872 19.9327Z" fill="#0B0F0E"/>
<path d="M34.5317 1.77696C34.4665 0.864515 35.1385 0.0709331 36.0325 0.00445271C36.9265 -0.0620277 37.704 0.623767 37.7691 1.53622L38.0534 5.51902C38.1186 6.43147 37.4467 7.22505 36.5527 7.29153C35.6587 7.35802 34.8811 6.67222 34.816 5.75977L34.5317 1.77696Z" fill="#0B0F0E"/>
<path d="M35.2695 11.3142C35.2044 10.4018 35.8763 9.60821 36.7703 9.54173C37.6643 9.47525 38.4418 10.161 38.507 11.0735L39.4049 23.6518C39.47 24.5642 38.7981 25.3578 37.9041 25.4243C37.0101 25.4907 36.2326 24.8049 36.1674 23.8925L35.2695 11.3142Z" fill="#0B0F0E"/>
<path d="M59.1308 6.65817C59.5998 5.87852 60.5992 5.63453 61.3631 6.1132C62.127 6.59187 62.3661 7.61194 61.8971 8.3916L57.8314 15.1503C57.3624 15.93 56.363 16.174 55.5991 15.6953C54.8352 15.2166 54.5962 14.1966 55.0652 13.4169L59.1308 6.65817Z" fill="#0B0F0E"/>
<path d="M52.7091 17.7969C53.1781 17.0173 54.1775 16.7733 54.9414 17.252C55.7053 17.7306 55.9444 18.7507 55.4754 19.5304L50.7653 27.3605C50.2963 28.1401 49.2969 28.3841 48.533 27.9054C47.7691 27.4268 47.53 26.4067 47.999 25.627L52.7091 17.7969Z" fill="#0B0F0E"/>
<path d="M73.7244 25.949C74.5328 25.5538 75.502 25.9024 75.8892 26.7276C76.2763 27.5527 75.9348 28.5419 75.1264 28.9371L68.5082 32.1718C67.6998 32.5669 66.7305 32.2183 66.3434 31.3932C65.9562 30.5681 66.2978 29.5788 67.1062 29.1837L73.7244 25.949Z" fill="#0B0F0E"/>
<path d="M10.7904 33.7868C11.6554 34.0268 12.166 34.937 11.9309 35.8198C11.6959 36.7027 10.8041 37.2238 9.93908 36.9839L1.19774 34.559C0.332752 34.3191 -0.177872 33.4089 0.057224 32.526C0.29232 31.6432 1.18411 31.122 2.0491 31.362L10.7904 33.7868Z" fill="#0B0F0E"/>
<path d="M19.917 36.723C20.7819 36.9629 21.2926 37.8731 21.0575 38.756C20.8224 39.6388 19.9306 40.16 19.0656 39.92L15.2452 38.8603C14.3803 38.6203 13.8696 37.7101 14.1047 36.8273C14.3398 35.9444 15.2316 35.4233 16.0966 35.6632L19.917 36.723Z" fill="#0B0F0E"/>
<path d="M10.2601 51.6344C11.1129 51.3526 12.028 51.8298 12.3041 52.7001C12.5802 53.5705 12.1127 54.5046 11.2599 54.7864L2.17565 57.7883C1.32287 58.0701 0.407731 57.5929 0.131627 56.7226C-0.144477 55.8522 0.323011 54.9181 1.17579 54.6363L10.2601 51.6344Z" fill="#0B0F0E"/>
<path d="M29.9339 61.1385C31.1335 60.012 34.5062 57.9638 37.8607 61.3433C40.3692 63.8706 38.3624 66.8933 36.9576 67.0783C35.9208 67.2149 33.7468 66.894 33.3454 64.5181C32.9441 62.1421 30.9039 61.2751 29.9339 61.1385Z" fill="#0B0F0E"/>
<path d="M218.496 54.8405V35.5403H222.774V39.8332L222.426 39.1946C222.867 37.7518 223.551 36.7466 224.478 36.179C225.429 35.6113 226.565 35.3275 227.887 35.3275H229V39.443H227.365C226.067 39.443 225.023 39.8569 224.235 40.6847C223.447 41.4889 223.052 42.6242 223.052 44.0906V54.8405H218.496Z" fill="#0B0F0E"/>
<path d="M206.173 55.2663C204.225 55.2663 202.521 54.8169 201.06 53.9181C199.599 53.0193 198.463 51.8012 197.651 50.2638C196.84 48.7264 196.434 47.0235 196.434 45.155C196.434 43.2155 196.84 41.5007 197.651 40.0106C198.486 38.4969 199.611 37.3024 201.025 36.4273C202.463 35.5522 204.063 35.1146 205.825 35.1146C207.309 35.1146 208.607 35.363 209.721 35.8597C210.857 36.3564 211.819 37.0423 212.607 37.9174C213.396 38.7925 213.999 39.7978 214.416 40.9331C214.833 42.0447 215.042 43.251 215.042 44.5518C215.042 44.883 215.019 45.2259 214.972 45.5807C214.949 45.9355 214.891 46.243 214.799 46.5031H200.19V42.9553H212.225L210.068 44.6228C210.277 43.5348 210.219 42.5651 209.894 41.7136C209.593 40.8621 209.083 40.188 208.364 39.6913C207.668 39.1946 206.822 38.9463 205.825 38.9463C204.874 38.9463 204.028 39.1946 203.286 39.6913C202.544 40.1644 201.976 40.8739 201.582 41.82C201.211 42.7425 201.072 43.8659 201.164 45.1905C201.072 46.3731 201.222 47.4256 201.616 48.348C202.034 49.2468 202.637 49.9445 203.425 50.4412C204.237 50.9379 205.164 51.1863 206.208 51.1863C207.251 51.1863 208.132 50.9616 208.851 50.5122C209.593 50.0628 210.173 49.4597 210.59 48.7028L214.277 50.5477C213.906 51.4701 213.326 52.2861 212.538 52.9957C211.749 53.7052 210.81 54.2611 209.721 54.6631C208.654 55.0652 207.471 55.2663 206.173 55.2663Z" fill="#0B0F0E"/>
<path d="M185.151 55.2663C183.273 55.2663 181.58 54.8287 180.073 53.9536C178.589 53.0548 177.418 51.8485 176.56 50.3348C175.702 48.7974 175.273 47.0708 175.273 45.155C175.273 43.2391 175.702 41.5243 176.56 40.0106C177.418 38.4969 178.589 37.3024 180.073 36.4273C181.58 35.5522 183.273 35.1146 185.151 35.1146C186.496 35.1146 187.748 35.363 188.907 35.8596C190.067 36.3327 191.064 36.995 191.899 37.8464C192.756 38.6743 193.371 39.6677 193.742 40.8266L189.742 42.6005C189.394 41.6308 188.803 40.8503 187.968 40.259C187.157 39.6676 186.218 39.372 185.151 39.372C184.154 39.372 183.261 39.6203 182.473 40.117C181.708 40.6137 181.105 41.2996 180.664 42.1748C180.224 43.0499 180.003 44.0551 180.003 45.1904C180.003 46.3257 180.224 47.331 180.664 48.2061C181.105 49.0812 181.708 49.7671 182.473 50.2638C183.261 50.7605 184.154 51.0089 185.151 51.0089C186.241 51.0089 187.191 50.7132 188.003 50.1219C188.815 49.5306 189.394 48.7383 189.742 47.7449L193.742 49.5897C193.371 50.6777 192.768 51.6593 191.933 52.5344C191.099 53.3859 190.101 54.06 188.942 54.5567C187.783 55.0297 186.519 55.2663 185.151 55.2663Z" fill="#0B0F0E"/>
<path d="M161.601 55.2663C160.279 55.2663 159.132 55.0416 158.158 54.5922C157.184 54.1428 156.43 53.5042 155.897 52.6763C155.364 51.8249 155.097 50.8433 155.097 49.7317C155.097 48.6673 155.329 47.7212 155.793 46.8934C156.256 46.0419 156.975 45.3323 157.949 44.7647C158.923 44.197 160.152 43.795 161.636 43.5584L167.827 42.5296V46.0774L162.505 46.9998C161.601 47.1654 160.929 47.461 160.488 47.8868C160.048 48.3125 159.827 48.8683 159.827 49.5543C159.827 50.2165 160.071 50.7487 160.558 51.1508C161.068 51.5292 161.694 51.7184 162.436 51.7184C163.387 51.7184 164.221 51.5174 164.94 51.1153C165.682 50.6896 166.25 50.1101 166.644 49.3769C167.062 48.6437 167.271 47.8395 167.271 46.9643V41.9974C167.271 41.1696 166.946 40.4837 166.297 39.9397C165.671 39.372 164.836 39.0882 163.792 39.0882C162.818 39.0882 161.949 39.3602 161.184 39.9042C160.442 40.4245 159.897 41.1223 159.549 41.9974L155.827 40.1525C156.198 39.1355 156.778 38.2603 157.566 37.5271C158.378 36.7703 159.329 36.179 160.419 35.7532C161.508 35.3275 162.691 35.1146 163.966 35.1146C165.52 35.1146 166.888 35.4103 168.071 36.0016C169.253 36.5692 170.169 37.3734 170.818 38.4141C171.491 39.4311 171.827 40.6256 171.827 41.9974V54.8405H167.514V51.541L168.488 51.4701C168.001 52.2979 167.421 52.9957 166.749 53.5633C166.076 54.1073 165.311 54.533 164.453 54.8405C163.595 55.1243 162.645 55.2663 161.601 55.2663Z" fill="#0B0F0E"/>
<path d="M135.245 54.8405V35.5403H139.523V39.3365L139.175 38.6624C139.616 37.5035 140.334 36.6283 141.331 36.037C142.352 35.4221 143.534 35.1146 144.879 35.1146C146.27 35.1146 147.499 35.4221 148.566 36.037C149.656 36.652 150.502 37.5153 151.105 38.627C151.708 39.715 152.009 40.9803 152.009 42.4231V54.8405H147.453V43.523C147.453 42.6715 147.291 41.9383 146.966 41.3233C146.641 40.7083 146.189 40.2353 145.61 39.9042C145.053 39.5494 144.392 39.372 143.627 39.372C142.885 39.372 142.224 39.5494 141.644 39.9042C141.065 40.2353 140.613 40.7083 140.288 41.3233C139.963 41.9383 139.801 42.6715 139.801 43.523V54.8405H135.245Z" fill="#0B0F0E"/>
<path d="M123.284 55.2663C121.336 55.2663 119.632 54.8169 118.171 53.9181C116.71 53.0193 115.574 51.8012 114.762 50.2638C113.951 48.7264 113.545 47.0235 113.545 45.155C113.545 43.2155 113.951 41.5007 114.762 40.0106C115.597 38.4969 116.722 37.3024 118.136 36.4273C119.574 35.5522 121.174 35.1146 122.936 35.1146C124.42 35.1146 125.718 35.363 126.831 35.8597C127.968 36.3564 128.93 37.0423 129.718 37.9174C130.507 38.7925 131.11 39.7978 131.527 40.9331C131.944 42.0447 132.153 43.251 132.153 44.5518C132.153 44.883 132.13 45.2259 132.083 45.5807C132.06 45.9355 132.002 46.243 131.91 46.5031H117.301V42.9553H129.336L127.179 44.6228C127.388 43.5348 127.33 42.5651 127.005 41.7136C126.704 40.8621 126.194 40.188 125.475 39.6913C124.779 39.1946 123.933 38.9463 122.936 38.9463C121.985 38.9463 121.139 39.1946 120.397 39.6913C119.655 40.1644 119.087 40.8739 118.693 41.82C118.322 42.7425 118.183 43.8659 118.275 45.1905C118.183 46.3731 118.333 47.4256 118.727 48.348C119.145 49.2468 119.748 49.9445 120.536 50.4412C121.348 50.9379 122.275 51.1863 123.319 51.1863C124.362 51.1863 125.243 50.9616 125.962 50.5122C126.704 50.0628 127.284 49.4597 127.701 48.7028L131.388 50.5477C131.017 51.4701 130.437 52.2861 129.649 52.9957C128.86 53.7052 127.921 54.2611 126.831 54.6631C125.765 55.0652 124.582 55.2663 123.284 55.2663Z" fill="#0B0F0E"/>
<path d="M92.3882 54.8405V28.4092H102.023C103.785 28.4092 105.339 28.7403 106.683 29.4026C108.051 30.0412 109.118 30.9873 109.883 32.2409C110.649 33.4708 111.031 34.9727 111.031 36.7466C111.031 38.5678 110.602 40.117 109.744 41.3943C108.909 42.6715 107.773 43.6176 106.336 44.2325L112.283 54.8405H106.927L100.562 43.2391L103.623 45.084H97.1185V54.8405H92.3882ZM97.1185 40.8266H102.092C102.95 40.8266 103.692 40.661 104.318 40.3299C104.944 39.9751 105.431 39.4903 105.779 38.8753C106.127 38.2603 106.301 37.5508 106.301 36.7466C106.301 35.9188 106.127 35.2092 105.779 34.6179C105.431 34.003 104.944 33.5299 104.318 33.1988C103.692 32.844 102.95 32.6666 102.092 32.6666H97.1185V40.8266Z" fill="#0B0F0E"/>
<path d="M201.738 68C201.442 68 201.179 67.9438 200.947 67.8315C200.715 67.7132 200.532 67.5536 200.399 67.3525C200.266 67.1515 200.199 66.9209 200.199 66.6607C200.199 66.4123 200.251 66.1876 200.355 65.9866C200.46 65.7796 200.622 65.6052 200.842 65.4633C201.063 65.3214 201.344 65.2209 201.686 65.1617L203.512 64.8513V65.4544L201.842 65.7383C201.506 65.7974 201.263 65.9068 201.112 66.0664C200.967 66.2261 200.895 66.4153 200.895 66.6341C200.895 66.847 200.976 67.0273 201.138 67.1751C201.306 67.323 201.521 67.3969 201.781 67.3969C202.1 67.3969 202.379 67.3289 202.616 67.1929C202.854 67.051 203.039 66.8617 203.173 66.6252C203.306 66.3887 203.373 66.1256 203.373 65.8358V64.6296C203.373 64.3457 203.271 64.1151 203.068 63.9377C202.865 63.7603 202.602 63.6717 202.277 63.6717C201.993 63.6717 201.744 63.7456 201.529 63.8934C201.315 64.0353 201.155 64.2216 201.051 64.4522L200.46 64.124C200.547 63.923 200.683 63.7397 200.868 63.5741C201.06 63.4085 201.277 63.2784 201.521 63.1838C201.764 63.0833 202.016 63.033 202.277 63.033C202.619 63.033 202.921 63.101 203.181 63.237C203.448 63.373 203.654 63.5623 203.799 63.8047C203.95 64.0412 204.025 64.3162 204.025 64.6296V67.8936H203.373V66.9445L203.468 67.0421C203.387 67.2195 203.26 67.3821 203.086 67.5299C202.918 67.6718 202.718 67.7871 202.486 67.8758C202.26 67.9586 202.01 68 201.738 68Z" fill="#0B0F0E"/>
<path d="M195.406 67.8936V63.1395H196.058V64.0619L195.91 64.0264C196.026 63.719 196.214 63.4765 196.475 63.2991C196.742 63.1217 197.049 63.033 197.397 63.033C197.727 63.033 198.023 63.1099 198.284 63.2636C198.551 63.4174 198.759 63.6303 198.91 63.9023C199.066 64.1683 199.145 64.4699 199.145 64.807V67.8936H198.493V65.0642C198.493 64.7744 198.44 64.529 198.336 64.328C198.237 64.127 198.095 63.9732 197.91 63.8668C197.73 63.7544 197.522 63.6983 197.284 63.6983C197.046 63.6983 196.835 63.7544 196.649 63.8668C196.464 63.9732 196.319 64.1299 196.214 64.3369C196.11 64.5379 196.058 64.7803 196.058 65.0642V67.8936H195.406Z" fill="#0B0F0E"/>
<path d="M192.073 68C191.749 68 191.453 67.9231 191.186 67.7694C190.92 67.6097 190.708 67.391 190.552 67.1131C190.401 66.8292 190.325 66.504 190.325 66.1374V63.1395H190.978V66.0576C190.978 66.3118 191.027 66.5365 191.125 66.7317C191.23 66.9209 191.372 67.0687 191.552 67.1751C191.737 67.2816 191.949 67.3348 192.186 67.3348C192.424 67.3348 192.636 67.2816 192.821 67.1751C193.007 67.0628 193.151 66.9061 193.256 66.705C193.36 66.4981 193.412 66.2527 193.412 65.9689V63.1395H194.064V67.8936H193.412V66.9711L193.56 67.0066C193.45 67.3141 193.262 67.5565 192.995 67.7339C192.728 67.9113 192.421 68 192.073 68Z" fill="#0B0F0E"/>
<path d="M185.897 67.8936V61.2857H186.593V67.2283H189.462V67.8936H185.897Z" fill="#0B0F0E"/>
<path d="M180.696 68C180.4 68 180.137 67.9438 179.905 67.8315C179.673 67.7132 179.49 67.5536 179.357 67.3525C179.223 67.1515 179.157 66.9209 179.157 66.6607C179.157 66.4123 179.209 66.1876 179.313 65.9866C179.418 65.7796 179.58 65.6052 179.8 65.4633C180.021 65.3214 180.302 65.2209 180.644 65.1617L182.47 64.8513V65.4544L180.8 65.7383C180.464 65.7974 180.221 65.9068 180.07 66.0664C179.925 66.2261 179.852 66.4153 179.852 66.6341C179.852 66.847 179.934 67.0273 180.096 67.1751C180.264 67.323 180.479 67.3969 180.739 67.3969C181.058 67.3969 181.336 67.3289 181.574 67.1929C181.812 67.051 181.997 66.8617 182.131 66.6252C182.264 66.3887 182.331 66.1256 182.331 65.8358V64.6296C182.331 64.3457 182.229 64.1151 182.026 63.9377C181.823 63.7603 181.56 63.6717 181.235 63.6717C180.951 63.6717 180.702 63.7456 180.487 63.8934C180.273 64.0353 180.113 64.2216 180.009 64.4522L179.418 64.124C179.505 63.923 179.641 63.7397 179.826 63.5741C180.018 63.4085 180.235 63.2784 180.479 63.1838C180.722 63.0833 180.974 63.033 181.235 63.033C181.577 63.033 181.878 63.101 182.139 63.237C182.406 63.373 182.612 63.5623 182.757 63.8047C182.907 64.0412 182.983 64.3162 182.983 64.6296V67.8936H182.331V66.9445L182.426 67.0421C182.345 67.2195 182.218 67.3821 182.044 67.5299C181.876 67.6718 181.676 67.7871 181.444 67.8758C181.218 67.9586 180.968 68 180.696 68Z" fill="#0B0F0E"/>
<path d="M174.364 67.8936V63.1395H175.016V64.0619L174.868 64.0264C174.984 63.719 175.172 63.4765 175.433 63.2991C175.7 63.1217 176.007 63.033 176.355 63.033C176.685 63.033 176.981 63.1099 177.242 63.2636C177.508 63.4174 177.717 63.6303 177.868 63.9023C178.024 64.1683 178.103 64.4699 178.103 64.807V67.8936H177.45V65.0642C177.45 64.7744 177.398 64.529 177.294 64.328C177.195 64.127 177.053 63.9732 176.868 63.8668C176.688 63.7544 176.479 63.6983 176.242 63.6983C176.004 63.6983 175.793 63.7544 175.607 63.8668C175.422 63.9732 175.277 64.1299 175.172 64.3369C175.068 64.5379 175.016 64.7803 175.016 65.0642V67.8936H174.364Z" fill="#0B0F0E"/>
<path d="M170.735 68C170.44 68 170.176 67.9438 169.944 67.8315C169.712 67.7132 169.53 67.5536 169.396 67.3525C169.263 67.1515 169.196 66.9209 169.196 66.6607C169.196 66.4123 169.248 66.1876 169.353 65.9866C169.457 65.7796 169.619 65.6052 169.84 65.4633C170.06 65.3214 170.341 65.2209 170.683 65.1617L172.509 64.8513V65.4544L170.84 65.7383C170.503 65.7974 170.26 65.9068 170.109 66.0664C169.964 66.2261 169.892 66.4153 169.892 66.6341C169.892 66.847 169.973 67.0273 170.135 67.1751C170.303 67.323 170.518 67.3969 170.779 67.3969C171.098 67.3969 171.376 67.3289 171.614 67.1929C171.851 67.051 172.037 66.8617 172.17 66.6252C172.303 66.3887 172.37 66.1256 172.37 65.8358V64.6296C172.37 64.3457 172.269 64.1151 172.066 63.9377C171.863 63.7603 171.599 63.6717 171.274 63.6717C170.99 63.6717 170.741 63.7456 170.527 63.8934C170.312 64.0353 170.153 64.2216 170.048 64.4522L169.457 64.124C169.544 63.923 169.68 63.7397 169.866 63.5741C170.057 63.4085 170.274 63.2784 170.518 63.1838C170.761 63.0833 171.014 63.033 171.274 63.033C171.616 63.033 171.918 63.101 172.179 63.237C172.445 63.373 172.651 63.5623 172.796 63.8047C172.947 64.0412 173.022 64.3162 173.022 64.6296V67.8936H172.37V66.9445L172.466 67.0421C172.385 67.2195 172.257 67.3821 172.083 67.5299C171.915 67.6718 171.715 67.7871 171.483 67.8758C171.257 67.9586 171.008 68 170.735 68Z" fill="#0B0F0E"/>
<path d="M161.49 67.8936V63.1395H162.143V64.0442L162.038 63.9111C162.166 63.6332 162.354 63.4174 162.603 63.2636C162.858 63.1099 163.137 63.033 163.438 63.033C163.798 63.033 164.122 63.1365 164.412 63.3435C164.702 63.5504 164.908 63.8195 165.029 64.1506L164.847 64.1595C164.963 63.7929 165.163 63.515 165.447 63.3257C165.737 63.1306 166.055 63.033 166.403 63.033C166.716 63.033 167.003 63.1099 167.264 63.2636C167.531 63.4174 167.742 63.6303 167.899 63.9023C168.061 64.1683 168.142 64.4699 168.142 64.807V67.8936H167.49V65.0642C167.49 64.7744 167.438 64.529 167.334 64.328C167.235 64.127 167.099 63.9732 166.925 63.8668C166.751 63.7544 166.551 63.6983 166.325 63.6983C166.105 63.6983 165.905 63.7544 165.725 63.8668C165.545 63.9732 165.403 64.1299 165.299 64.3369C165.195 64.5379 165.142 64.7803 165.142 65.0642V67.8936H164.49V65.0642C164.49 64.7744 164.438 64.529 164.334 64.328C164.235 64.127 164.099 63.9732 163.925 63.8668C163.751 63.7544 163.551 63.6983 163.325 63.6983C163.099 63.6983 162.896 63.7544 162.716 63.8668C162.542 63.9732 162.403 64.1299 162.299 64.3369C162.195 64.5379 162.143 64.7803 162.143 65.0642V67.8936H161.49Z" fill="#0B0F0E"/>
<path d="M158.552 67.8936V63.1395H159.204V63.92L159.117 63.8047C159.228 63.58 159.393 63.4026 159.613 63.2725C159.839 63.1424 160.112 63.0774 160.43 63.0774H160.726V63.7426H160.317C159.981 63.7426 159.712 63.849 159.509 64.0619C159.306 64.2748 159.204 64.5763 159.204 64.9666V67.8936H158.552Z" fill="#0B0F0E"/>
<path d="M155.324 68C154.889 68 154.495 67.8936 154.142 67.6807C153.794 67.4619 153.519 67.1633 153.316 66.7849C153.113 66.4064 153.011 65.9777 153.011 65.4988C153.011 65.0198 153.11 64.597 153.307 64.2304C153.504 63.8579 153.771 63.5652 154.107 63.3523C154.449 63.1395 154.832 63.033 155.255 63.033C155.591 63.033 155.889 63.0981 156.15 63.2282C156.417 63.3523 156.643 63.5238 156.829 63.7426C157.014 63.9555 157.156 64.1979 157.255 64.4699C157.353 64.736 157.402 65.011 157.402 65.2948C157.402 65.3539 157.4 65.4219 157.394 65.4988C157.388 65.5697 157.379 65.6436 157.368 65.7205H153.429V65.0996H156.994L156.681 65.3657C156.733 65.0405 156.695 64.7508 156.568 64.4965C156.446 64.2363 156.269 64.0323 156.037 63.8845C155.805 63.7308 155.545 63.6539 155.255 63.6539C154.965 63.6539 154.695 63.7308 154.446 63.8845C154.203 64.0383 154.011 64.2541 153.872 64.532C153.733 64.804 153.678 65.1292 153.707 65.5076C153.678 65.8861 153.736 66.2172 153.881 66.501C154.032 66.779 154.234 66.9948 154.49 67.1485C154.75 67.3023 155.029 67.3791 155.324 67.3791C155.666 67.3791 155.953 67.2963 156.185 67.1308C156.417 66.9652 156.605 66.7583 156.75 66.5099L157.307 66.8115C157.214 67.0243 157.072 67.2224 156.881 67.4057C156.689 67.5831 156.46 67.728 156.194 67.8403C155.933 67.9468 155.643 68 155.324 68Z" fill="#0B0F0E"/>
<path d="M146.896 67.8936V61.2857H147.591V64.257H151.069V61.2857H151.765V67.8936H151.069V64.9223H147.591V67.8936H146.896Z" fill="#0B0F0E"/>
<path d="M143.335 67.8936V61.1793H143.988V67.8936H143.335Z" fill="#0B0F0E"/>
<path d="M139.82 68C139.38 68 138.98 67.8936 138.62 67.6807C138.261 67.4619 137.974 67.1663 137.759 66.7937C137.551 66.4153 137.446 65.9866 137.446 65.5076C137.446 65.0346 137.551 64.6118 137.759 64.2393C137.968 63.8668 138.249 63.5741 138.603 63.3612C138.962 63.1424 139.368 63.033 139.82 63.033C140.272 63.033 140.675 63.1395 141.029 63.3523C141.388 63.5652 141.669 63.8579 141.872 64.2304C142.081 64.603 142.185 65.0287 142.185 65.5076C142.185 65.9925 142.078 66.4242 141.863 66.8026C141.649 67.1751 141.362 67.4678 141.003 67.6807C140.649 67.8936 140.255 68 139.82 68ZM139.82 67.3348C140.133 67.3348 140.414 67.255 140.664 67.0953C140.919 66.9356 141.119 66.7169 141.264 66.4389C141.414 66.161 141.49 65.8506 141.49 65.5076C141.49 65.1647 141.414 64.8572 141.264 64.5852C141.119 64.3132 140.919 64.0974 140.664 63.9377C140.414 63.7781 140.133 63.6983 139.82 63.6983C139.507 63.6983 139.223 63.7781 138.968 63.9377C138.719 64.0974 138.519 64.3132 138.368 64.5852C138.217 64.8572 138.142 65.1647 138.142 65.5076C138.142 65.8506 138.217 66.161 138.368 66.4389C138.519 66.7169 138.719 66.9356 138.968 67.0953C139.223 67.255 139.507 67.3348 139.82 67.3348Z" fill="#0B0F0E"/>
<path d="M134.294 68C133.883 68 133.509 67.9202 133.173 67.7605C132.836 67.6009 132.552 67.388 132.32 67.1219C132.089 66.8499 131.923 66.5513 131.825 66.2261L132.451 65.9866C132.602 66.436 132.836 66.779 133.155 67.0155C133.474 67.2461 133.854 67.3614 134.294 67.3614C134.573 67.3614 134.816 67.317 135.025 67.2283C135.239 67.1337 135.404 67.0037 135.52 66.8381C135.636 66.6725 135.694 66.4804 135.694 66.2616C135.694 65.9363 135.607 65.685 135.433 65.5077C135.26 65.3303 135.01 65.1943 134.686 65.0996L133.52 64.7449C133.062 64.6089 132.709 64.3812 132.46 64.0619C132.216 63.7426 132.094 63.379 132.094 62.971C132.094 62.6221 132.178 62.3146 132.347 62.0485C132.515 61.7765 132.744 61.5637 133.033 61.4099C133.329 61.2562 133.662 61.1793 134.033 61.1793C134.422 61.1793 134.77 61.2532 135.077 61.401C135.39 61.543 135.654 61.7322 135.868 61.9687C136.083 62.2052 136.236 62.4683 136.329 62.7581L135.72 63.0064C135.581 62.6162 135.364 62.3205 135.068 62.1195C134.778 61.9184 134.436 61.8179 134.042 61.8179C133.793 61.8179 133.573 61.8623 133.381 61.951C133.196 62.0397 133.051 62.1668 132.947 62.3324C132.842 62.4979 132.79 62.693 132.79 62.9177C132.79 63.1897 132.874 63.4351 133.042 63.6539C133.21 63.8668 133.468 64.0264 133.816 64.1329L134.842 64.4433C135.352 64.597 135.738 64.8188 135.999 65.1085C136.259 65.3983 136.39 65.7619 136.39 66.1995C136.39 66.5543 136.3 66.8677 136.12 67.1396C135.946 67.4057 135.7 67.6156 135.381 67.7694C135.068 67.9231 134.706 68 134.294 68Z" fill="#0B0F0E"/>
<path d="M127.023 68C126.583 68 126.183 67.8936 125.823 67.6807C125.464 67.4619 125.177 67.1663 124.962 66.7937C124.754 66.4153 124.649 65.9866 124.649 65.5076C124.649 65.0346 124.754 64.6118 124.962 64.2393C125.171 63.8668 125.452 63.5741 125.806 63.3612C126.165 63.1424 126.571 63.033 127.023 63.033C127.475 63.033 127.878 63.1395 128.232 63.3523C128.591 63.5652 128.873 63.8579 129.075 64.2304C129.284 64.603 129.388 65.0287 129.388 65.5076C129.388 65.9925 129.281 66.4242 129.067 66.8026C128.852 67.1751 128.565 67.4678 128.206 67.6807C127.852 67.8936 127.458 68 127.023 68ZM127.023 67.3348C127.336 67.3348 127.617 67.255 127.867 67.0953C128.122 66.9356 128.322 66.7169 128.467 66.4389C128.617 66.161 128.693 65.8506 128.693 65.5076C128.693 65.1647 128.617 64.8572 128.467 64.5852C128.322 64.3132 128.122 64.0974 127.867 63.9377C127.617 63.7781 127.336 63.6983 127.023 63.6983C126.71 63.6983 126.426 63.7781 126.171 63.9377C125.922 64.0974 125.722 64.3132 125.571 64.5852C125.42 64.8572 125.345 65.1647 125.345 65.5076C125.345 65.8506 125.42 66.161 125.571 66.4389C125.722 66.7169 125.922 66.9356 126.171 67.0953C126.426 67.255 126.71 67.3348 127.023 67.3348Z" fill="#0B0F0E"/>
<path d="M119.856 67.8936V63.1395H120.508V64.0619L120.361 64.0264C120.476 63.719 120.665 63.4765 120.926 63.2991C121.192 63.1217 121.5 63.033 121.847 63.033C122.178 63.033 122.474 63.1099 122.734 63.2636C123.001 63.4174 123.21 63.6303 123.36 63.9023C123.517 64.1683 123.595 64.4699 123.595 64.807V67.8936H122.943V65.0642C122.943 64.7744 122.891 64.529 122.787 64.328C122.688 64.127 122.546 63.9732 122.36 63.8668C122.181 63.7544 121.972 63.6983 121.734 63.6983C121.497 63.6983 121.285 63.7544 121.1 63.8668C120.914 63.9732 120.769 64.1299 120.665 64.3369C120.561 64.5379 120.508 64.7803 120.508 65.0642V67.8936H119.856Z" fill="#0B0F0E"/>
<path d="M116.228 68C115.932 68 115.669 67.9438 115.437 67.8315C115.205 67.7132 115.022 67.5536 114.889 67.3525C114.756 67.1515 114.689 66.9209 114.689 66.6607C114.689 66.4123 114.741 66.1876 114.845 65.9866C114.95 65.7796 115.112 65.6052 115.332 65.4633C115.553 65.3214 115.834 65.2209 116.176 65.1617L118.002 64.8513V65.4544L116.332 65.7383C115.996 65.7974 115.753 65.9068 115.602 66.0664C115.457 66.2261 115.384 66.4153 115.384 66.6341C115.384 66.847 115.466 67.0273 115.628 67.1751C115.796 67.323 116.011 67.3969 116.271 67.3969C116.59 67.3969 116.868 67.3289 117.106 67.1929C117.344 67.051 117.529 66.8617 117.663 66.6252C117.796 66.3887 117.863 66.1256 117.863 65.8358V64.6296C117.863 64.3457 117.761 64.1151 117.558 63.9377C117.355 63.7603 117.092 63.6717 116.767 63.6717C116.483 63.6717 116.234 63.7456 116.019 63.8934C115.805 64.0353 115.645 64.2216 115.541 64.4522L114.95 64.124C115.037 63.923 115.173 63.7397 115.358 63.5741C115.55 63.4085 115.767 63.2784 116.011 63.1838C116.254 63.0833 116.506 63.033 116.767 63.033C117.109 63.033 117.411 63.101 117.671 63.237C117.938 63.373 118.144 63.5623 118.289 63.8047C118.439 64.0412 118.515 64.3162 118.515 64.6296V67.8936H117.863V66.9445L117.958 67.0421C117.877 67.2195 117.75 67.3821 117.576 67.5299C117.408 67.6718 117.208 67.7871 116.976 67.8758C116.75 67.9586 116.5 68 116.228 68Z" fill="#0B0F0E"/>
<path d="M106.983 67.8936V63.1395H107.635V64.0442L107.531 63.9111C107.658 63.6332 107.847 63.4174 108.096 63.2636C108.351 63.1099 108.629 63.033 108.931 63.033C109.29 63.033 109.615 63.1365 109.905 63.3435C110.194 63.5504 110.4 63.8195 110.522 64.1506L110.339 64.1595C110.455 63.7929 110.655 63.515 110.939 63.3257C111.229 63.1306 111.548 63.033 111.896 63.033C112.209 63.033 112.496 63.1099 112.757 63.2636C113.023 63.4174 113.235 63.6303 113.391 63.9023C113.554 64.1683 113.635 64.4699 113.635 64.807V67.8936H112.983V65.0642C112.983 64.7744 112.931 64.529 112.826 64.328C112.728 64.127 112.592 63.9732 112.418 63.8668C112.244 63.7544 112.044 63.6983 111.818 63.6983C111.597 63.6983 111.397 63.7544 111.218 63.8668C111.038 63.9732 110.896 64.1299 110.792 64.3369C110.687 64.5379 110.635 64.7803 110.635 65.0642V67.8936H109.983V65.0642C109.983 64.7744 109.931 64.529 109.826 64.328C109.728 64.127 109.592 63.9732 109.418 63.8668C109.244 63.7544 109.044 63.6983 108.818 63.6983C108.592 63.6983 108.389 63.7544 108.209 63.8668C108.035 63.9732 107.896 64.1299 107.792 64.3369C107.687 64.5379 107.635 64.7803 107.635 65.0642V67.8936H106.983Z" fill="#0B0F0E"/>
<path d="M104.045 67.8936V63.1395H104.697V63.92L104.61 63.8047C104.72 63.58 104.885 63.4026 105.106 63.2725C105.332 63.1424 105.604 63.0774 105.923 63.0774H106.219V63.7426H105.81C105.474 63.7426 105.204 63.849 105.001 64.0619C104.799 64.2748 104.697 64.5763 104.697 64.9666V67.8936H104.045Z" fill="#0B0F0E"/>
<path d="M100.817 68C100.382 68 99.9879 67.8936 99.6343 67.6807C99.2865 67.4619 99.0112 67.1633 98.8083 66.7849C98.6054 66.4064 98.5039 65.9777 98.5039 65.4988C98.5039 65.0198 98.6025 64.597 98.7996 64.2304C98.9967 63.8579 99.2633 63.5652 99.5995 63.3523C99.9416 63.1395 100.324 63.033 100.747 63.033C101.084 63.033 101.382 63.0981 101.643 63.2282C101.91 63.3523 102.136 63.5238 102.321 63.7426C102.507 63.9555 102.649 64.1979 102.747 64.4699C102.846 64.736 102.895 65.011 102.895 65.2948C102.895 65.3539 102.892 65.4219 102.886 65.4988C102.881 65.5697 102.872 65.6436 102.86 65.7205H98.9213V65.0996H102.486L102.173 65.3657C102.226 65.0405 102.188 64.7508 102.06 64.4965C101.939 64.2363 101.762 64.0323 101.53 63.8845C101.298 63.7308 101.037 63.6539 100.747 63.6539C100.457 63.6539 100.188 63.7308 99.9387 63.8845C99.6952 64.0383 99.5039 64.2541 99.3648 64.532C99.2257 64.804 99.1706 65.1292 99.1996 65.5076C99.1706 65.8861 99.2286 66.2172 99.3735 66.501C99.5242 66.779 99.7271 66.9948 99.9821 67.1485C100.243 67.3023 100.521 67.3791 100.817 67.3791C101.159 67.3791 101.446 67.2963 101.678 67.1308C101.91 66.9652 102.098 66.7583 102.243 66.5099L102.799 66.8115C102.707 67.0243 102.565 67.2224 102.373 67.4057C102.182 67.5831 101.953 67.728 101.686 67.8403C101.426 67.9468 101.136 68 100.817 68Z" fill="#0B0F0E"/>
<path d="M92.3882 67.8936V61.2857H93.0839V64.257H96.562V61.2857H97.2576V67.8936H96.562V64.9223H93.0839V67.8936H92.3882Z" fill="#0B0F0E"/>
</svg>
