<svg width="269" height="481" viewBox="0 0 269 481" fill="none" xmlns="http://www.w3.org/2000/svg">
<g opacity="0.1">
<path d="M268.5 406.913C165.692 406.913 82.3497 332.175 82.3497 239.983C82.3497 147.791 165.692 73.0535 268.5 73.0535" fill="#FB8501"/>
<path d="M60.9558 239.983C60.9558 137.199 153.88 53.8694 268.499 53.8694" stroke="#1D262D" stroke-miterlimit="10"/>
<path d="M268.499 426.097C153.88 426.097 60.9558 342.767 60.9558 239.983" stroke="#1D262D" stroke-width="4" stroke-miterlimit="10"/>
<path d="M60.9558 239.983C60.9558 137.199 153.88 53.8694 268.499 53.8694" stroke="#1D262D" stroke-miterlimit="10"/>
<path d="M268.499 426.097C153.88 426.097 60.9558 342.767 60.9558 239.983" stroke="#1D262D" stroke-width="4" stroke-miterlimit="10"/>
<path d="M41.792 239.983C41.792 127.706 143.294 36.6846 268.499 36.6846" stroke="#1D262D" stroke-miterlimit="10"/>
<path d="M268.499 443.281C143.294 443.281 41.792 352.26 41.792 239.983" stroke="#1D262D" stroke-width="4" stroke-miterlimit="10"/>
<path d="M41.792 239.983C41.792 127.706 143.294 36.6846 268.499 36.6846" stroke="#1D262D" stroke-miterlimit="10"/>
<path d="M268.499 443.281C143.294 443.281 41.792 352.26 41.792 239.983" stroke="#1D262D" stroke-width="4" stroke-miterlimit="10"/>
<path d="M22.709 239.983C22.709 118.249 132.748 19.5718 268.499 19.5718" stroke="#1D262D" stroke-miterlimit="10"/>
<path d="M268.499 460.394C132.748 460.394 22.709 361.717 22.709 239.983" stroke="#1D262D" stroke-width="4" stroke-miterlimit="10"/>
<path d="M2 239.983C2 107.999 121.319 1 268.5 1" stroke="#1D262D" stroke-miterlimit="10"/>
<path d="M268.5 478.966C121.319 478.966 2 371.967 2 239.983" stroke="#1D262D" stroke-width="4" stroke-miterlimit="10"/>
</g>
</svg>
