<svg width="2145" height="639" viewBox="0 0 2145 639" fill="none" xmlns="http://www.w3.org/2000/svg">
<path d="M237.088 639C181.805 639 136.989 594.19 136.989 538.915C136.989 483.64 181.805 438.83 237.088 438.83C257.942 440.434 288.433 446.529 331.412 472.513C372.799 497.534 381.461 500.421 409.373 515.819C466.16 536.028 462.31 463.851 419.96 493.684C447.873 374.352 601.87 479.232 477.71 542.765C563.371 542.765 580.569 454.228 535.459 419.583C469.047 368.578 426.056 425.678 413.223 457.115C413.223 384.938 487.241 304.101 579.733 304.101C672.226 304.101 747.206 379.07 747.206 471.55C747.206 564.03 672.226 639 579.733 639C522.947 639 496.959 625.527 381.461 559.125C340.652 530.639 297.725 534.509 276.55 545.652C239.975 564.899 250.563 606.28 283.287 606.28C274.047 628.607 258.263 639 237.088 639Z" fill="#0B0F0E"/>
<path d="M487.335 303.138C339.112 186.693 198.589 323.347 214.95 416.695C274.238 406.686 354.511 451.661 387.236 475.399C384.348 438.83 396.861 352.218 487.335 303.138Z" fill="#0B0F0E"/>
<path d="M111.515 112.079C106.232 105.296 107.448 95.5155 114.232 90.2329C121.015 84.9503 130.797 86.1663 136.081 92.9489L164.403 129.309C169.686 136.091 168.47 145.872 161.687 151.155C154.903 156.437 145.121 155.221 139.838 148.439L111.515 112.079Z" fill="#0B0F0E"/>
<path d="M171.58 187.309C166.297 180.526 167.513 170.746 174.297 165.463C181.08 160.18 190.862 161.396 196.146 168.179L259.865 249.98C265.148 256.762 263.932 266.543 257.148 271.826C250.365 277.108 240.583 275.892 235.299 269.11L171.58 187.309Z" fill="#0B0F0E"/>
<path d="M331.24 16.6982C330.615 8.12389 337.061 0.666563 345.636 0.0418424C354.212 -0.582878 361.67 5.86157 362.295 14.4359L365.022 51.8626C365.647 60.4369 359.202 67.8943 350.626 68.519C342.051 69.1437 334.592 62.6993 333.967 54.1249L331.24 16.6982Z" fill="#0B0F0E"/>
<path d="M338.318 106.321C337.693 97.7462 344.138 90.2889 352.714 89.6642C361.289 89.0395 368.748 95.4839 369.373 104.058L377.986 222.257C378.61 230.831 372.165 238.289 363.59 238.913C355.014 239.538 347.556 233.094 346.931 224.519L338.318 106.321Z" fill="#0B0F0E"/>
<path d="M567.204 62.5673C571.702 55.2408 581.289 52.948 588.617 57.4461C595.944 61.9442 598.237 71.5299 593.739 78.8563L554.74 142.368C550.241 149.695 540.654 151.988 533.327 147.49C525.999 142.992 523.706 133.406 528.205 126.079L567.204 62.5673Z" fill="#0B0F0E"/>
<path d="M505.605 167.239C510.103 159.912 519.69 157.62 527.018 162.118C534.345 166.616 536.638 176.201 532.14 183.528L486.959 257.108C482.46 264.434 472.873 266.727 465.546 262.229C458.218 257.731 455.925 248.145 460.424 240.819L505.605 167.239Z" fill="#0B0F0E"/>
<path d="M707.19 243.844C714.945 240.131 724.242 243.406 727.956 251.16C731.67 258.914 728.394 268.21 720.639 271.923L657.155 302.32C649.4 306.033 640.103 302.757 636.389 295.004C632.676 287.25 635.952 277.954 643.707 274.241L707.19 243.844Z" fill="#0B0F0E"/>
<path d="M103.506 317.497C111.803 319.752 116.701 328.305 114.446 336.601C112.191 344.897 103.636 349.795 95.3392 347.54L11.4891 324.753C3.19188 322.498 -1.70621 313.945 0.548913 305.649C2.80404 297.353 11.3584 292.455 19.6557 294.71L103.506 317.497Z" fill="#0B0F0E"/>
<path d="M191.051 345.088C199.348 347.343 204.246 355.896 201.991 364.192C199.736 372.488 191.181 377.386 182.884 375.131L146.238 365.172C137.941 362.917 133.042 354.364 135.298 346.068C137.553 337.772 146.107 332.874 154.404 335.129L191.051 345.088Z" fill="#0B0F0E"/>
<path d="M98.4184 485.212C106.599 482.564 115.377 487.047 118.025 495.226C120.674 503.405 116.19 512.183 108.009 514.831L20.8696 543.04C12.6895 545.688 3.9111 541.204 1.26261 533.025C-1.38587 524.846 3.09844 516.069 11.2786 513.421L98.4184 485.212Z" fill="#0B0F0E"/>
<path d="M287.137 574.522C298.643 563.936 330.995 544.689 363.173 576.447C387.236 600.196 367.986 628.601 354.511 630.339C344.565 631.622 323.711 628.606 319.861 606.28C316.011 583.953 296.441 575.805 287.137 574.522Z" fill="#0B0F0E"/>
<path d="M2089.07 432.145C2081.96 432.145 2075.78 430.959 2070.54 428.589C2065.3 426.218 2061.25 422.849 2058.38 418.482C2055.51 413.99 2054.07 408.811 2054.07 402.947C2054.07 397.332 2055.32 392.341 2057.82 387.973C2060.31 383.481 2064.18 379.738 2069.42 376.743C2074.66 373.749 2081.27 371.628 2089.26 370.38L2122.58 364.952V383.669L2093.94 388.535C2089.07 389.408 2085.45 390.968 2083.08 393.214C2080.71 395.46 2079.53 398.392 2079.53 402.011C2079.53 405.505 2080.84 408.312 2083.46 410.433C2086.2 412.43 2089.57 413.428 2093.57 413.428C2098.68 413.428 2103.17 412.368 2107.04 410.246C2111.03 408 2114.09 404.943 2116.21 401.075C2118.46 397.207 2119.58 392.965 2119.58 388.348V362.144C2119.58 357.777 2117.83 354.159 2114.34 351.289C2110.97 348.294 2106.48 346.797 2100.87 346.797C2095.62 346.797 2090.95 348.232 2086.83 351.102C2082.83 353.847 2079.9 357.528 2078.03 362.144L2058 352.412C2060 347.046 2063.12 342.429 2067.36 338.561C2071.73 334.568 2076.85 331.449 2082.71 329.203C2088.57 326.957 2094.94 325.834 2101.8 325.834C2110.16 325.834 2117.52 327.394 2123.89 330.513C2130.25 333.508 2135.18 337.75 2138.67 343.241C2142.29 348.606 2144.1 354.907 2144.1 362.144V429.899H2120.89V412.492L2126.13 412.118C2123.51 416.485 2120.39 420.166 2116.77 423.161C2113.16 426.031 2109.04 428.277 2104.42 429.899C2099.8 431.396 2094.69 432.145 2089.07 432.145Z" fill="#0B0F0E"/>
<path d="M1947.24 429.899V328.08H1970.26V348.107L1968.39 344.551C1970.76 338.437 1974.63 333.82 1980 330.7C1985.49 327.456 1991.85 325.834 1999.09 325.834C2006.57 325.834 2013.19 327.456 2018.93 330.7C2024.79 333.945 2029.35 338.499 2032.59 344.364C2035.83 350.103 2037.46 356.779 2037.46 364.39V429.899H2012.94V370.193C2012.94 365.701 2012.06 361.832 2010.32 358.588C2008.57 355.344 2006.14 352.848 2003.02 351.102C2000.02 349.23 1996.47 348.294 1992.35 348.294C1988.36 348.294 1984.8 349.23 1981.68 351.102C1978.56 352.848 1976.13 355.344 1974.38 358.588C1972.63 361.832 1971.76 365.701 1971.76 370.193V429.899H1947.24Z" fill="#0B0F0E"/>
<path d="M1872.6 432.145C1864.74 432.145 1857.88 430.399 1852.02 426.905C1846.28 423.411 1841.85 418.545 1838.73 412.306C1835.73 406.067 1834.24 398.767 1834.24 390.407V328.081H1858.75V388.348C1858.75 392.591 1859.57 396.334 1861.19 399.578C1862.93 402.698 1865.37 405.193 1868.49 407.065C1871.73 408.812 1875.35 409.685 1879.34 409.685C1883.34 409.685 1886.89 408.812 1890.01 407.065C1893.13 405.193 1895.56 402.635 1897.31 399.391C1899.06 396.147 1899.93 392.279 1899.93 387.787V328.081H1924.45V429.899H1901.24V409.873L1903.3 413.429C1900.93 419.668 1897 424.347 1891.51 427.466C1886.14 430.586 1879.84 432.145 1872.6 432.145Z" fill="#0B0F0E"/>
<path d="M1736.73 429.899V290.46H1762.18V407.439H1821.89V429.899H1736.73Z" fill="#0B0F0E"/>
<path d="M1623.72 432.145C1616.6 432.145 1610.43 430.959 1605.19 428.589C1599.94 426.218 1595.89 422.849 1593.02 418.482C1590.15 413.99 1588.71 408.811 1588.71 402.947C1588.71 397.332 1589.96 392.341 1592.46 387.973C1594.95 383.481 1598.82 379.738 1604.06 376.743C1609.3 373.749 1615.92 371.628 1623.9 370.38L1657.22 364.952V383.669L1628.58 388.535C1623.72 389.408 1620.1 390.968 1617.73 393.214C1615.35 395.46 1614.17 398.392 1614.17 402.011C1614.17 405.505 1615.48 408.312 1618.1 410.433C1620.85 412.43 1624.21 413.428 1628.21 413.428C1633.32 413.428 1637.81 412.368 1641.68 410.246C1645.68 408 1648.73 404.943 1650.85 401.075C1653.1 397.207 1654.22 392.965 1654.22 388.348V362.144C1654.22 357.777 1652.48 354.159 1648.98 351.289C1645.61 348.294 1641.12 346.797 1635.51 346.797C1630.27 346.797 1625.59 348.232 1621.47 351.102C1617.48 353.847 1614.54 357.528 1612.67 362.144L1592.65 352.412C1594.64 347.046 1597.76 342.429 1602 338.561C1606.37 334.568 1611.49 331.449 1617.35 329.203C1623.22 326.957 1629.58 325.834 1636.44 325.834C1644.8 325.834 1652.16 327.394 1658.53 330.513C1664.89 333.508 1669.82 337.75 1673.31 343.241C1676.93 348.606 1678.74 354.907 1678.74 362.144V429.899H1655.53V412.492L1660.77 412.118C1658.15 416.485 1655.03 420.166 1651.42 423.161C1647.8 426.031 1643.68 428.277 1639.06 429.899C1634.45 431.396 1629.33 432.145 1623.72 432.145Z" fill="#0B0F0E"/>
<path d="M1481.88 429.899V328.08H1504.91V348.107L1503.03 344.551C1505.4 338.437 1509.27 333.82 1514.64 330.7C1520.13 327.456 1526.49 325.834 1533.73 325.834C1541.22 325.834 1547.83 327.456 1553.57 330.7C1559.43 333.945 1563.99 338.499 1567.23 344.364C1570.48 350.103 1572.1 356.779 1572.1 364.39V429.899H1547.58V370.193C1547.58 365.701 1546.71 361.832 1544.96 358.588C1543.21 355.344 1540.78 352.848 1537.66 351.102C1534.66 349.23 1531.11 348.294 1526.99 348.294C1523 348.294 1519.44 349.23 1516.32 351.102C1513.2 352.848 1510.77 355.344 1509.02 358.588C1507.28 361.832 1506.4 365.701 1506.4 370.193V429.899H1481.88Z" fill="#0B0F0E"/>
<path d="M1404.2 432.145C1397.08 432.145 1390.91 430.959 1385.67 428.589C1380.43 426.218 1376.37 422.849 1373.5 418.482C1370.63 413.99 1369.2 408.811 1369.2 402.947C1369.2 397.332 1370.44 392.341 1372.94 387.973C1375.43 383.481 1379.3 379.738 1384.54 376.743C1389.78 373.749 1396.4 371.628 1404.38 370.38L1437.7 364.952V383.669L1409.06 388.535C1404.2 389.408 1400.58 390.968 1398.21 393.214C1395.84 395.46 1394.65 398.392 1394.65 402.011C1394.65 405.505 1395.96 408.312 1398.58 410.433C1401.33 412.43 1404.69 413.428 1408.69 413.428C1413.8 413.428 1418.3 412.368 1422.16 410.246C1426.16 408 1429.21 404.943 1431.33 401.075C1433.58 397.207 1434.7 392.965 1434.7 388.348V362.144C1434.7 357.777 1432.96 354.159 1429.46 351.289C1426.09 348.294 1421.6 346.797 1415.99 346.797C1410.75 346.797 1406.07 348.232 1401.95 351.102C1397.96 353.847 1395.02 357.528 1393.15 362.144L1373.13 352.412C1375.12 347.046 1378.24 342.429 1382.48 338.561C1386.85 334.568 1391.97 331.449 1397.83 329.203C1403.7 326.957 1410.06 325.834 1416.92 325.834C1425.28 325.834 1432.64 327.394 1439.01 330.513C1445.37 333.508 1450.3 337.75 1453.79 343.241C1457.41 348.606 1459.22 354.907 1459.22 362.144V429.899H1436.01V412.492L1441.25 412.118C1438.63 416.485 1435.51 420.166 1431.9 423.161C1428.28 426.031 1424.16 428.277 1419.54 429.899C1414.93 431.396 1409.81 432.145 1404.2 432.145Z" fill="#0B0F0E"/>
<path d="M1200.4 429.899V328.08H1223.42V351.663L1220.8 347.733C1222.68 340.371 1226.42 334.88 1232.03 331.262C1237.65 327.643 1244.26 325.834 1251.87 325.834C1260.23 325.834 1267.6 328.018 1273.96 332.385C1280.32 336.752 1284.44 342.492 1286.31 349.604L1279.39 350.166C1282.51 342.055 1287.19 336.003 1293.42 332.01C1299.66 327.893 1306.84 325.834 1314.95 325.834C1322.19 325.834 1328.61 327.456 1334.23 330.7C1339.97 333.945 1344.46 338.499 1347.7 344.364C1350.95 350.103 1352.57 356.779 1352.57 364.39V429.899H1328.05V370.193C1328.05 365.701 1327.24 361.832 1325.62 358.588C1323.99 355.344 1321.75 352.848 1318.88 351.102C1316.01 349.23 1312.52 348.294 1308.4 348.294C1304.53 348.294 1301.1 349.23 1298.1 351.102C1295.11 352.848 1292.8 355.344 1291.18 358.588C1289.56 361.832 1288.75 365.701 1288.75 370.193V429.899H1264.23V370.193C1264.23 365.701 1263.42 361.832 1261.79 358.588C1260.17 355.344 1257.86 352.848 1254.87 351.102C1252 349.23 1248.57 348.294 1244.57 348.294C1240.71 348.294 1237.27 349.23 1234.28 351.102C1231.28 352.848 1228.98 355.344 1227.35 358.588C1225.73 361.832 1224.92 365.701 1224.92 370.193V429.899H1200.4Z" fill="#0B0F0E"/>
<path d="M1130.4 429.899V328.08H1153.42V350.727L1151.55 347.358C1153.92 339.747 1157.6 334.444 1162.59 331.449C1167.71 328.454 1173.82 326.957 1180.93 326.957H1186.92V348.668H1178.13C1171.14 348.668 1165.52 350.852 1161.28 355.219C1157.04 359.462 1154.92 365.451 1154.92 373.187V429.899H1130.4Z" fill="#0B0F0E"/>
<path d="M1064.08 432.145C1053.6 432.145 1044.43 429.774 1036.57 425.033C1028.71 420.291 1022.59 413.865 1018.23 405.754C1013.86 397.644 1011.68 388.66 1011.68 378.802C1011.68 368.57 1013.86 359.524 1018.23 351.663C1022.72 343.677 1028.77 337.376 1036.38 332.759C1044.12 328.142 1052.73 325.834 1062.21 325.834C1070.2 325.834 1077.19 327.144 1083.17 329.764C1089.29 332.385 1094.47 336.003 1098.71 340.62C1102.95 345.237 1106.2 350.54 1108.44 356.529C1110.69 362.394 1111.81 368.758 1111.81 375.62C1111.81 377.367 1111.69 379.177 1111.44 381.048C1111.31 382.92 1111 384.542 1110.5 385.915H1031.89V367.198H1096.65L1085.05 375.995C1086.17 370.255 1085.86 365.139 1084.11 360.647C1082.49 356.155 1079.74 352.599 1075.88 349.979C1072.13 347.358 1067.58 346.048 1062.21 346.048C1057.1 346.048 1052.54 347.358 1048.55 349.979C1044.56 352.474 1041.5 356.217 1039.38 361.209C1037.38 366.075 1036.63 372.002 1037.13 378.989C1036.63 385.228 1037.44 390.781 1039.56 395.647C1041.81 400.389 1045.05 404.07 1049.3 406.69C1053.66 409.31 1058.66 410.621 1064.27 410.621C1069.89 410.621 1074.63 409.435 1078.5 407.064C1082.49 404.694 1085.61 401.512 1087.85 397.519L1107.69 407.252C1105.7 412.118 1102.58 416.423 1098.34 420.166C1094.09 423.91 1089.04 426.842 1083.17 428.963C1077.43 431.084 1071.07 432.145 1064.08 432.145Z" fill="#0B0F0E"/>
<path d="M880.585 429.899V290.46H906.04V351.289H965.372V290.46H991.014V429.899H965.372V373.749H906.04V429.899H880.585Z" fill="#0B0F0E"/>
<path d="M1991.47 194.478V52.7925H2015.99V194.478H1991.47Z" fill="#0B0F0E"/>
<path d="M1919.16 196.724C1909.18 196.724 1900.07 194.416 1891.84 189.799C1883.73 185.182 1877.24 178.881 1872.37 170.895C1867.63 162.909 1865.26 153.8 1865.26 143.569C1865.26 133.337 1867.63 124.228 1872.37 116.242C1877.24 108.256 1883.73 101.955 1891.84 97.3383C1899.95 92.7215 1909.06 90.4131 1919.16 90.4131C1929.15 90.4131 1938.19 92.7215 1946.3 97.3383C1954.41 101.955 1960.84 108.256 1965.58 116.242C1970.45 124.103 1972.88 133.212 1972.88 143.569C1972.88 153.8 1970.45 162.909 1965.58 170.895C1960.72 178.881 1954.23 185.182 1946.12 189.799C1938.01 194.416 1929.02 196.724 1919.16 196.724ZM1919.16 174.264C1924.66 174.264 1929.46 172.954 1933.58 170.333C1937.82 167.713 1941.13 164.095 1943.5 159.478C1945.99 154.736 1947.24 149.433 1947.24 143.569C1947.24 137.579 1945.99 132.339 1943.5 127.847C1941.13 123.23 1937.82 119.611 1933.58 116.991C1929.46 114.246 1924.66 112.873 1919.16 112.873C1913.55 112.873 1908.62 114.246 1904.38 116.991C1900.14 119.611 1896.77 123.23 1894.27 127.847C1891.9 132.339 1890.72 137.579 1890.72 143.569C1890.72 149.433 1891.9 154.736 1894.27 159.478C1896.77 164.095 1900.14 167.713 1904.38 170.333C1908.62 172.954 1913.55 174.264 1919.16 174.264Z" fill="#0B0F0E"/>
<path d="M1800.04 196.724C1791.18 196.724 1782.95 195.102 1775.33 191.858C1767.85 188.613 1761.36 184.121 1755.87 178.382C1750.5 172.517 1746.57 165.717 1744.08 157.98L1765.23 148.809C1768.6 156.795 1773.46 163.096 1779.83 167.713C1786.19 172.205 1793.37 174.451 1801.35 174.451C1805.84 174.451 1809.71 173.765 1812.96 172.392C1816.32 170.895 1818.88 168.898 1820.63 166.403C1822.5 163.907 1823.44 160.913 1823.44 157.419C1823.44 153.301 1822.19 149.932 1819.69 147.312C1817.32 144.567 1813.7 142.446 1808.84 140.948L1782.07 132.338C1771.22 128.969 1763.04 123.916 1757.55 117.178C1752.06 110.44 1749.32 102.517 1749.32 93.4077C1749.32 85.4219 1751.25 78.372 1755.12 72.2578C1759.11 66.1437 1764.6 61.4022 1771.59 58.0332C1778.7 54.5394 1786.81 52.7925 1795.92 52.7925C1804.28 52.7925 1811.96 54.2898 1818.94 57.2845C1825.93 60.1544 1831.92 64.2097 1836.91 69.4503C1842.03 74.5662 1845.83 80.618 1848.33 87.6056L1827.37 96.9639C1824.62 89.9763 1820.5 84.6109 1815.01 80.8675C1809.52 76.9994 1803.16 75.0654 1795.92 75.0654C1791.68 75.0654 1787.94 75.814 1784.69 77.3114C1781.45 78.6839 1778.89 80.6804 1777.02 83.3007C1775.27 85.7963 1774.4 88.7909 1774.4 92.2847C1774.4 96.1528 1775.65 99.5842 1778.14 102.579C1780.64 105.449 1784.44 107.695 1789.56 109.317L1815.2 117.365C1826.31 120.984 1834.6 125.975 1840.09 132.338C1845.71 138.702 1848.52 146.563 1848.52 155.922C1848.52 163.907 1846.46 170.957 1842.34 177.071C1838.22 183.186 1832.55 187.989 1825.31 191.483C1818.07 194.977 1809.65 196.724 1800.04 196.724Z" fill="#0B0F0E"/>
<path d="M1642.62 196.724C1632.64 196.724 1623.53 194.416 1615.29 189.799C1607.18 185.182 1600.69 178.881 1595.83 170.895C1591.09 162.909 1588.71 153.8 1588.71 143.569C1588.71 133.337 1591.09 124.228 1595.83 116.242C1600.69 108.256 1607.18 101.955 1615.29 97.3383C1623.4 92.7215 1632.51 90.4131 1642.62 90.4131C1652.6 90.4131 1661.65 92.7215 1669.76 97.3383C1677.87 101.955 1684.29 108.256 1689.04 116.242C1693.9 124.103 1696.34 133.212 1696.34 143.569C1696.34 153.8 1693.9 162.909 1689.04 170.895C1684.17 178.881 1677.68 185.182 1669.57 189.799C1661.46 194.416 1652.48 196.724 1642.62 196.724ZM1642.62 174.264C1648.11 174.264 1652.91 172.954 1657.03 170.333C1661.27 167.713 1664.58 164.095 1666.95 159.478C1669.45 154.736 1670.69 149.433 1670.69 143.569C1670.69 137.579 1669.45 132.339 1666.95 127.847C1664.58 123.23 1661.27 119.611 1657.03 116.991C1652.91 114.246 1648.11 112.873 1642.62 112.873C1637 112.873 1632.08 114.246 1627.83 116.991C1623.59 119.611 1620.22 123.23 1617.73 127.847C1615.35 132.339 1614.17 137.579 1614.17 143.569C1614.17 149.433 1615.35 154.736 1617.73 159.478C1620.22 164.095 1623.59 167.713 1627.83 170.333C1632.08 172.954 1637 174.264 1642.62 174.264Z" fill="#0B0F0E"/>
<path d="M1481.88 194.478V92.6591H1504.91V112.686L1503.03 109.13C1505.4 103.016 1509.27 98.3989 1514.64 95.2794C1520.13 92.0352 1526.49 90.4131 1533.73 90.4131C1541.22 90.4131 1547.83 92.0352 1553.57 95.2794C1559.43 98.5237 1563.99 103.078 1567.23 108.943C1570.48 114.682 1572.1 121.358 1572.1 128.97V194.478H1547.58V134.772C1547.58 130.28 1546.71 126.412 1544.96 123.167C1543.21 119.923 1540.78 117.428 1537.66 115.681C1534.66 113.809 1531.11 112.873 1526.99 112.873C1523 112.873 1519.44 113.809 1516.32 115.681C1513.2 117.428 1510.77 119.923 1509.02 123.167C1507.28 126.412 1506.4 130.28 1506.4 134.772V194.478H1481.88Z" fill="#0B0F0E"/>
<path d="M1404.2 196.724C1397.08 196.724 1390.91 195.539 1385.67 193.168C1380.43 190.797 1376.37 187.428 1373.5 183.061C1370.63 178.569 1369.2 173.39 1369.2 167.526C1369.2 161.911 1370.44 156.92 1372.94 152.553C1375.43 148.061 1379.3 144.317 1384.54 141.323C1389.78 138.328 1396.4 136.207 1404.38 134.959L1437.7 129.531V148.248L1409.06 153.114C1404.2 153.988 1400.58 155.547 1398.21 157.793C1395.84 160.039 1394.65 162.972 1394.65 166.59C1394.65 170.084 1395.96 172.891 1398.58 175.013C1401.33 177.009 1404.69 178.007 1408.69 178.007C1413.8 178.007 1418.3 176.947 1422.16 174.825C1426.16 172.579 1429.21 169.522 1431.33 165.654C1433.58 161.786 1434.7 157.544 1434.7 152.927V126.724C1434.7 122.356 1432.96 118.738 1429.46 115.868C1426.09 112.873 1421.6 111.376 1415.99 111.376C1410.75 111.376 1406.07 112.811 1401.95 115.681C1397.96 118.426 1395.02 122.107 1393.15 126.724L1373.13 116.991C1375.12 111.625 1378.24 107.009 1382.48 103.14C1386.85 99.1476 1391.97 96.0281 1397.83 93.7821C1403.7 91.5361 1410.06 90.4131 1416.92 90.4131C1425.28 90.4131 1432.64 91.9728 1439.01 95.0923C1445.37 98.0869 1450.3 102.329 1453.79 107.82C1457.41 113.185 1459.22 119.486 1459.22 126.724V194.478H1436.01V177.071L1441.25 176.697C1438.63 181.064 1435.51 184.745 1431.9 187.74C1428.28 190.61 1424.16 192.856 1419.54 194.478C1414.93 195.975 1409.81 196.724 1404.2 196.724Z" fill="#0B0F0E"/>
<path d="M1200.4 194.478V92.6591H1223.42V116.242L1220.8 112.312C1222.68 104.95 1226.42 99.4595 1232.03 95.8409C1237.65 92.2224 1244.26 90.4131 1251.87 90.4131C1260.23 90.4131 1267.6 92.5967 1273.96 96.9639C1280.32 101.331 1284.44 107.071 1286.31 114.183L1279.39 114.745C1282.51 106.634 1287.19 100.583 1293.42 96.5896C1299.66 92.4719 1306.84 90.4131 1314.95 90.4131C1322.19 90.4131 1328.61 92.0352 1334.23 95.2794C1339.97 98.5237 1344.46 103.078 1347.7 108.943C1350.95 114.682 1352.57 121.358 1352.57 128.97V194.478H1328.05V134.772C1328.05 130.28 1327.24 126.412 1325.62 123.167C1323.99 119.923 1321.75 117.428 1318.88 115.681C1316.01 113.809 1312.52 112.873 1308.4 112.873C1304.53 112.873 1301.1 113.809 1298.1 115.681C1295.11 117.428 1292.8 119.923 1291.18 123.167C1289.56 126.412 1288.75 130.28 1288.75 134.772V194.478H1264.23V134.772C1264.23 130.28 1263.42 126.412 1261.79 123.167C1260.17 119.923 1257.86 117.428 1254.87 115.681C1252 113.809 1248.57 112.873 1244.57 112.873C1240.71 112.873 1237.27 113.809 1234.28 115.681C1231.28 117.428 1228.98 119.923 1227.35 123.167C1225.73 126.412 1224.92 130.28 1224.92 134.772V194.478H1200.4Z" fill="#0B0F0E"/>
<path d="M1130.4 194.478V92.6591H1153.42V115.306L1151.55 111.937C1153.92 104.326 1157.6 99.0228 1162.59 96.0281C1167.71 93.0335 1173.82 91.5361 1180.93 91.5361H1186.92V113.248H1178.13C1171.14 113.248 1165.52 115.431 1161.28 119.798C1157.04 124.041 1154.92 130.03 1154.92 137.766V194.478H1130.4Z" fill="#0B0F0E"/>
<path d="M1064.08 196.724C1053.6 196.724 1044.43 194.353 1036.57 189.612C1028.71 184.87 1022.59 178.444 1018.23 170.333C1013.86 162.223 1011.68 153.239 1011.68 143.381C1011.68 133.15 1013.86 124.103 1018.23 116.242C1022.72 108.256 1028.77 101.955 1036.38 97.3383C1044.12 92.7215 1052.73 90.4131 1062.21 90.4131C1070.2 90.4131 1077.19 91.7233 1083.17 94.3436C1089.29 96.9639 1094.47 100.583 1098.71 105.199C1102.95 109.816 1106.2 115.119 1108.44 121.108C1110.69 126.973 1111.81 133.337 1111.81 140.2C1111.81 141.946 1111.69 143.756 1111.44 145.627C1111.31 147.499 1111 149.121 1110.5 150.494H1031.89V131.777H1096.65L1085.05 140.574C1086.17 134.834 1085.86 129.718 1084.11 125.226C1082.49 120.734 1079.74 117.178 1075.88 114.558C1072.13 111.937 1067.58 110.627 1062.21 110.627C1057.1 110.627 1052.54 111.937 1048.55 114.558C1044.56 117.053 1041.5 120.797 1039.38 125.788C1037.38 130.654 1036.63 136.581 1037.13 143.569C1036.63 149.807 1037.44 155.36 1039.56 160.226C1041.81 164.968 1045.05 168.649 1049.3 171.269C1053.66 173.89 1058.66 175.2 1064.27 175.2C1069.89 175.2 1074.63 174.014 1078.5 171.644C1082.49 169.273 1085.61 166.091 1087.85 162.098L1107.69 171.831C1105.7 176.697 1102.58 181.002 1098.34 184.745C1094.09 188.489 1089.04 191.421 1083.17 193.542C1077.43 195.663 1071.07 196.724 1064.08 196.724Z" fill="#0B0F0E"/>
<path d="M880.585 194.478V55.0386H906.04V115.868H965.372V55.0386H991.014V194.478H965.372V138.328H906.04V194.478H880.585Z" fill="#0B0F0E"/>
<path d="M1209.9 618.529V568.368H1216.92V576.603L1215.98 575.387C1217.17 573.016 1218.95 571.144 1221.32 569.772C1223.75 568.399 1226.68 567.713 1230.11 567.713H1233.3V574.732H1228.9C1225.28 574.732 1222.38 575.855 1220.19 578.101C1218.01 580.347 1216.92 583.529 1216.92 587.646V618.529H1209.9Z" fill="#0B0F0E"/>
<path d="M1175.16 619.651C1170.48 619.651 1166.24 618.528 1162.43 616.282C1158.69 613.974 1155.72 610.823 1153.54 606.83C1151.36 602.838 1150.26 598.314 1150.26 593.261C1150.26 588.207 1151.33 583.747 1153.45 579.878C1155.57 575.948 1158.44 572.86 1162.06 570.614C1165.74 568.368 1169.85 567.245 1174.41 567.245C1178.03 567.245 1181.24 567.931 1184.05 569.303C1186.92 570.614 1189.35 572.423 1191.35 574.731C1193.34 576.977 1194.87 579.535 1195.93 582.405C1196.99 585.213 1197.52 588.114 1197.52 591.108C1197.52 591.732 1197.49 592.45 1197.43 593.261C1197.37 594.01 1197.27 594.789 1197.15 595.6H1154.76V589.05H1193.13L1189.76 591.857C1190.32 588.426 1189.91 585.369 1188.54 582.686C1187.23 579.941 1185.33 577.788 1182.83 576.229C1180.34 574.607 1177.53 573.795 1174.41 573.795C1171.29 573.795 1168.39 574.607 1165.71 576.229C1163.09 577.851 1161.03 580.128 1159.53 583.06C1158.03 585.93 1157.44 589.362 1157.75 593.354C1157.44 597.347 1158.06 600.841 1159.62 603.836C1161.25 606.768 1163.43 609.045 1166.17 610.667C1168.98 612.29 1171.98 613.101 1175.16 613.101C1178.84 613.101 1181.93 612.227 1184.42 610.48C1186.92 608.733 1188.95 606.55 1190.51 603.929L1196.49 607.111C1195.5 609.357 1193.97 611.447 1191.91 613.381C1189.85 615.253 1187.39 616.782 1184.52 617.967C1181.71 619.09 1178.59 619.651 1175.16 619.651Z" fill="#0B0F0E"/>
<path d="M1119.14 619.651C1114.21 619.651 1109.87 618.497 1106.13 616.189C1102.39 613.88 1099.45 610.761 1097.33 606.83C1095.21 602.838 1094.15 598.346 1094.15 593.354C1094.15 588.363 1095.21 583.902 1097.33 579.972C1099.45 576.041 1102.39 572.953 1106.13 570.707C1109.87 568.399 1114.21 567.245 1119.14 567.245C1122.26 567.245 1125.19 567.806 1127.94 568.929C1130.68 570.052 1133.11 571.581 1135.23 573.515C1137.36 575.386 1138.95 577.57 1140.01 580.066L1133.64 583.341C1132.4 580.658 1130.49 578.475 1127.94 576.79C1125.38 575.106 1122.44 574.263 1119.14 574.263C1115.83 574.263 1112.84 575.106 1110.15 576.79C1107.53 578.412 1105.44 580.689 1103.88 583.622C1102.39 586.492 1101.64 589.767 1101.64 593.448C1101.64 597.067 1102.39 600.342 1103.88 603.274C1105.44 606.144 1107.53 608.421 1110.15 610.106C1112.84 611.79 1115.83 612.633 1119.14 612.633C1122.44 612.633 1125.35 611.79 1127.84 610.106C1130.4 608.421 1132.33 606.175 1133.64 603.368L1140.01 606.83C1138.95 609.264 1137.36 611.447 1135.23 613.381C1133.11 615.315 1130.68 616.844 1127.94 617.967C1125.19 619.09 1122.26 619.651 1119.14 619.651Z" fill="#0B0F0E"/>
<path d="M1057.16 619.651C1053.98 619.651 1051.14 619.059 1048.64 617.873C1046.15 616.626 1044.18 614.941 1042.75 612.82C1041.31 610.699 1040.6 608.265 1040.6 605.52C1040.6 602.9 1041.16 600.529 1042.28 598.408C1043.4 596.224 1045.15 594.384 1047.52 592.887C1049.89 591.389 1052.92 590.329 1056.6 589.705L1076.25 586.429V592.793L1058.28 595.788C1054.67 596.411 1052.05 597.566 1050.42 599.25C1048.86 600.935 1048.08 602.931 1048.08 605.24C1048.08 607.486 1048.96 609.388 1050.7 610.948C1052.51 612.508 1054.82 613.288 1057.63 613.288C1061.06 613.288 1064.05 612.57 1066.61 611.135C1069.17 609.638 1071.17 607.642 1072.6 605.146C1074.04 602.65 1074.75 599.874 1074.75 596.817V584.09C1074.75 581.095 1073.66 578.662 1071.48 576.79C1069.3 574.918 1066.46 573.983 1062.96 573.983C1059.91 573.983 1057.22 574.763 1054.91 576.322C1052.61 577.82 1050.89 579.785 1049.77 582.218L1043.4 578.755C1044.34 576.634 1045.81 574.7 1047.8 572.953C1049.86 571.206 1052.2 569.834 1054.82 568.836C1057.44 567.775 1060.16 567.245 1062.96 567.245C1066.64 567.245 1069.89 567.962 1072.7 569.397C1075.57 570.832 1077.78 572.828 1079.34 575.386C1080.96 577.882 1081.77 580.783 1081.77 584.09V618.528H1074.75V608.515L1075.78 609.544C1074.91 611.416 1073.54 613.132 1071.67 614.691C1069.86 616.189 1067.7 617.405 1065.21 618.341C1062.78 619.215 1060.09 619.651 1057.16 619.651Z" fill="#0B0F0E"/>
<path d="M989.01 618.528V568.368H996.029V578.1L994.438 577.726C995.685 574.482 997.713 571.924 1000.52 570.052C1003.39 568.18 1006.7 567.245 1010.44 567.245C1014 567.245 1017.18 568.056 1019.99 569.678C1022.86 571.3 1025.1 573.546 1026.72 576.416C1028.41 579.223 1029.25 582.405 1029.25 585.961V618.528H1022.23V588.675C1022.23 585.618 1021.67 583.029 1020.55 580.908C1019.49 578.787 1017.96 577.164 1015.96 576.041C1014.03 574.856 1011.78 574.263 1009.22 574.263C1006.67 574.263 1004.39 574.856 1002.39 576.041C1000.4 577.164 998.836 578.818 997.713 581.001C996.59 583.123 996.029 585.681 996.029 588.675V618.528H989.01Z" fill="#0B0F0E"/>
<path d="M954.268 619.651C949.589 619.651 945.347 618.528 941.541 616.282C937.798 613.974 934.834 610.823 932.65 606.83C930.467 602.838 929.375 598.314 929.375 593.261C929.375 588.207 930.436 583.747 932.557 579.878C934.678 575.948 937.548 572.86 941.167 570.614C944.847 568.368 948.965 567.245 953.52 567.245C957.138 567.245 960.351 567.931 963.159 569.303C966.029 570.614 968.462 572.423 970.458 574.731C972.455 576.977 973.983 579.535 975.044 582.405C976.104 585.213 976.635 588.114 976.635 591.108C976.635 591.732 976.603 592.45 976.541 593.261C976.479 594.01 976.385 594.789 976.26 595.6H933.867V589.05H972.236L968.867 591.857C969.429 588.426 969.023 585.369 967.651 582.686C966.34 579.941 964.438 577.788 961.942 576.229C959.447 574.607 956.639 573.795 953.52 573.795C950.4 573.795 947.499 574.607 944.816 576.229C942.196 577.851 940.137 580.128 938.64 583.06C937.142 585.93 936.55 589.362 936.862 593.354C936.55 597.347 937.174 600.841 938.733 603.836C940.355 606.768 942.539 609.045 945.284 610.667C948.092 612.29 951.086 613.101 954.268 613.101C957.949 613.101 961.037 612.227 963.533 610.48C966.029 608.733 968.056 606.55 969.616 603.929L975.605 607.111C974.607 609.357 973.079 611.447 971.02 613.381C968.961 615.253 966.496 616.782 963.627 617.967C960.819 619.09 957.7 619.651 954.268 619.651Z" fill="#0B0F0E"/>
<path d="M875.345 618.528V548.809H899.302C903.857 548.809 907.849 549.713 911.281 551.523C914.712 553.269 917.364 555.765 919.235 559.009C921.169 562.191 922.136 565.903 922.136 570.146C922.136 575.074 920.826 579.286 918.206 582.779C915.648 586.273 912.154 588.738 907.725 590.173L924.008 618.528H915.211L898.179 588.488L903.233 591.389H882.831V618.528H875.345ZM882.831 584.37H899.676C902.671 584.37 905.291 583.809 907.537 582.686C909.783 581.5 911.53 579.847 912.778 577.726C914.026 575.542 914.65 572.984 914.65 570.052C914.65 567.12 914.026 564.593 912.778 562.472C911.53 560.351 909.783 558.728 907.537 557.605C905.291 556.42 902.671 555.827 899.676 555.827H882.831V584.37Z" fill="#0B0F0E"/>
</svg>
