<svg width="756" height="840" viewBox="0 0 756 840" fill="none" xmlns="http://www.w3.org/2000/svg">
<g opacity="0.1">
<path d="M349.047 565.438C333.952 576.683 318.442 578.916 303.416 565.977C288.46 553.116 287.075 535.633 292.892 514.068C273.296 518.766 255.639 518.689 244.076 499.204C234.174 482.568 236.528 466.24 246.361 450.529C247.607 449.22 248.784 447.911 250.031 446.601C257.024 440.979 265.195 435.588 273.296 437.359C288.183 440.671 285.482 432.969 286.244 421.34C287.352 405.243 285.829 398.62 269.557 401.238C263.671 402.163 256.886 396.309 250.446 393.537C248.715 391.611 247.053 389.763 245.322 387.837C236.667 371.818 234.036 355.413 244.491 339.163C256.055 321.141 272.465 319.6 292.614 325.608C287.49 303.581 288.252 284.25 305.701 271.465C320.588 260.529 335.199 263.301 349.255 274.084C350.432 275.47 351.609 276.779 352.786 278.166C355.625 286.021 361.857 294.416 360.749 301.502C357.841 320.602 366.011 317.136 377.921 318.214C392.254 319.524 393.5 315.211 393.085 301.579C392.877 293.877 398.278 285.944 401.187 278.166C402.433 276.702 403.748 275.316 404.995 273.852C420.02 262.146 435.461 260.144 450.556 272.851C465.581 285.559 467.382 303.042 461.566 324.453C480.676 320.756 498.541 319.832 510.174 339.471C520.075 356.107 517.86 372.357 508.443 388.222C506.989 389.84 505.534 391.457 504.08 392.997C496.948 396.078 489.47 402.471 482.754 401.624C468.213 399.775 468.351 405.551 468.559 419.26C468.767 432.507 468.005 438.977 482.823 437.128C489.539 436.281 497.018 442.673 504.08 445.831C505.534 447.448 507.058 449.066 508.512 450.76C518.552 467.473 520.56 484.648 508.996 501.283C497.571 517.765 482.13 520.383 462.743 513.375C466.689 535.633 465.997 555.888 447.578 568.673C433.384 578.454 419.328 575.759 405.895 566.208C404.095 564.206 402.225 562.127 400.425 560.124C393.293 548.418 391.492 535.248 393.431 521.539C373.143 518.997 356.248 519.613 358.326 549.573C358.603 553.193 355.002 557.043 353.201 560.817C351.747 562.435 350.432 563.975 349.047 565.438ZM446.332 496.585C434.699 488.729 459.142 464.007 433.176 463.93C419.882 463.853 416.835 468.936 416.904 482.568C417.112 511.141 438.993 484.031 446.332 496.585ZM308.471 496.893C315.603 486.034 341.569 511.758 337.068 476.484C333.468 448.45 317.472 470.553 308.609 463.314C312.21 475.02 308.402 484.802 308.471 496.893ZM447.232 343.168C416.489 346.71 417.251 346.787 416.351 354.797C413.304 382.369 432.069 372.973 446.609 377.286C442.247 364.501 445.571 354.027 447.232 343.168ZM308.194 341.627C309.925 354.104 310.964 364.733 309.302 376.824C317.749 368.352 334.783 389.224 337.622 361.498C341.153 327.148 315.049 354.412 308.194 341.627ZM365.25 417.489C365.734 424.806 360.818 435.203 374.251 432.353C381.037 430.89 389.831 436.281 388.654 420.493C387.892 409.787 387.407 405.628 376.398 406.399C368.158 407.015 362.203 406.091 365.25 417.489Z" fill="#EE885E"/>
<path d="M352.786 278.24C351.609 276.854 350.432 275.544 349.255 274.158C349.048 272.464 349.255 270.538 348.632 269.075C340.808 249.898 340.531 231.722 356.595 217.705C369.612 206.306 384.361 206.229 397.448 217.551C413.581 231.414 413.373 249.667 405.687 268.844C405.064 270.384 405.203 272.233 404.995 273.927C403.749 275.39 402.433 276.777 401.187 278.24C385.054 285.634 368.92 285.403 352.786 278.24Z" fill="#EE885E"/>
<path d="M508.446 450.912C506.992 449.294 505.469 447.677 504.014 445.983C497.229 428.346 497.367 410.786 504.014 393.149C505.469 391.532 506.923 389.914 508.377 388.374C513.501 386.603 518.555 384.369 523.818 383.291C538.774 380.133 551.653 384.138 560.239 398.925C568.063 412.403 568.064 426.651 560.308 440.206C551.722 454.993 538.913 459.076 523.956 455.995C518.694 454.917 513.639 452.606 508.446 450.912Z" fill="#EE885E"/>
<path d="M400.291 560.198C402.092 562.278 403.961 564.28 405.761 566.283C406.731 570.441 407.769 574.524 408.739 578.682C412.893 596.242 410.401 611.877 396.344 622.736C383.465 632.594 369.617 632.44 356.946 622.197C343.166 611.029 340.951 595.318 345.59 577.835C346.698 573.676 347.875 569.594 348.983 565.513C350.298 563.972 351.683 562.509 352.999 560.969C368.717 553.575 384.504 553.729 400.291 560.198Z" fill="#EE885E"/>
<path d="M249.963 446.677C248.717 447.986 247.539 449.296 246.293 450.605C227.39 457.305 208.418 463.313 194.293 440.67C186.053 427.5 185.914 413.098 193.738 399.543C207.171 376.361 226.213 381.521 245.324 387.913C247.055 389.839 248.717 391.687 250.448 393.613C256.749 411.403 256.126 429.04 249.963 446.677Z" fill="#EE885E"/>
<path d="M564.534 533.937C564.88 553.423 549.162 570.982 531.644 570.597C515.025 570.212 500.208 553.808 499.862 535.324C499.515 515.761 515.164 498.278 532.752 498.663C549.37 499.049 564.187 515.453 564.534 533.937Z" fill="#EE885E"/>
<path d="M222.266 570.289C204.956 570.52 189.376 552.883 189.93 533.629C190.415 515.299 205.232 499.126 221.712 498.972C239.023 498.741 254.602 516.378 254.048 535.632C253.495 553.962 238.746 570.135 222.266 570.289Z" fill="#EE885E"/>
<path d="M305.844 590.927C306.537 610.182 291.095 627.973 273.646 627.973C257.167 627.973 242.211 611.876 241.518 593.469C240.826 574.215 256.267 556.424 273.716 556.424C290.195 556.424 305.152 572.443 305.844 590.927Z" fill="#EE885E"/>
<path d="M530.399 340.47C512.88 339.237 498.339 320.445 500.07 301.345C501.802 282.784 517.589 267.612 533.999 268.767C551.518 269.999 566.128 288.791 564.327 307.891C562.596 326.452 546.74 341.625 530.399 340.47Z" fill="#EE885E"/>
<path d="M220.813 268.923C237.154 268.23 252.596 283.634 253.911 302.041C255.296 321.141 240.478 339.471 223.029 340.241C205.718 341.011 189.793 323.836 189.862 304.505C189.931 286.252 204.333 269.694 220.813 268.923Z" fill="#EE885E"/>
<path d="M512.742 247.28C512.673 266.765 496.609 283.863 479.16 283.016C462.542 282.169 448.139 265.456 448.209 246.972C448.278 227.487 464.411 210.389 481.791 211.236C498.409 212.083 512.812 228.873 512.742 247.28Z" fill="#EE885E"/>
<path d="M273.787 211.466C291.167 211.543 306.538 229.411 305.707 248.588C304.946 266.995 289.92 282.861 273.51 282.784C256.13 282.707 240.758 264.839 241.589 245.662C242.351 227.255 257.376 211.312 273.787 211.466Z" fill="#EE885E"/>
<path d="M512.742 591.698C512.95 611.107 497.163 628.512 479.714 627.973C463.096 627.434 448.486 611.029 448.278 592.545C448.07 573.06 463.788 555.731 481.306 556.271C497.924 556.81 512.465 573.214 512.742 591.698Z" fill="#EE885E"/>
<path d="M295.456 647.612C298.087 627.357 308.335 616.497 326.684 616.728C344.203 616.959 357.013 633.518 354.797 653.08C352.443 673.567 340.948 683.81 322.876 682.346C304.319 680.883 296.01 667.559 295.456 647.612Z" fill="#EE885E"/>
<path d="M583.848 510.601C565.637 508.83 554.974 498.279 554.074 477.715C553.243 458.153 567.507 442.595 585.095 444.059C603.444 445.599 613.83 457.537 613.553 477.869C613.207 498.433 601.989 508.907 583.848 510.601Z" fill="#EE885E"/>
<path d="M199.901 476.792C198.516 497.047 189.238 509.524 170.542 509.678C152.055 509.832 141.184 498.202 140.976 477.562C140.768 456.998 151.293 444.984 169.85 444.676C188.545 444.291 198.101 456.459 199.901 476.792Z" fill="#EE885E"/>
<path d="M458.869 649.309C457.553 669.411 448.274 682.042 429.787 682.658C411.507 683.274 400.567 671.875 398.974 651.466C397.451 631.904 411.299 615.884 428.887 616.577C447.375 617.27 456.999 628.977 458.869 649.309Z" fill="#EE885E"/>
<path d="M583.365 395.538C565.085 393.382 554.629 382.6 554.075 362.036C553.521 342.474 568.131 327.147 585.649 328.996C603.998 330.921 614.177 343.09 613.485 363.422C612.862 383.986 601.437 394.152 583.365 395.538Z" fill="#EE885E"/>
<path d="M171.447 329.149C189.658 331.613 200.183 342.781 199.491 363.421C198.798 384.062 187.512 395.383 169.093 394.613C150.537 393.92 140.427 381.366 140.981 360.88C141.604 340.085 153.167 330.227 171.447 329.149Z" fill="#EE885E"/>
<path d="M355.285 188.824C353.346 210.465 343.652 222.557 324.957 222.249C306.331 221.941 295.806 209.772 296.014 189.131C296.221 168.414 307.231 156.784 325.788 156.939C344.622 157.016 353.554 169.954 355.285 188.824Z" fill="#EE885E"/>
<path d="M458.662 189.98C456.93 210.158 447.375 221.865 428.956 222.558C411.369 223.251 397.728 207.463 399.182 187.901C400.706 167.491 411.508 156.247 429.718 156.786C448.206 157.325 457.346 169.879 458.662 189.98Z" fill="#EE885E"/>
<path d="M222.754 679.959C206.482 677.88 195.68 668.407 195.334 650.308C194.988 632.209 205.236 620.502 221.369 620.04C237.572 619.578 248.166 631.054 248.581 648.998C248.997 667.174 238.403 676.955 222.754 679.959Z" fill="#EE885E"/>
<path d="M377.509 737.646C361.514 735.567 350.643 726.017 350.297 707.841C349.951 689.665 360.268 677.881 376.471 677.419C392.812 676.957 403.406 688.51 403.821 706.531C404.306 724.784 393.643 734.719 377.509 737.646Z" fill="#EE885E"/>
<path d="M637.514 389.3C651.986 391.918 661.818 401.545 662.719 419.644C663.48 435.972 648.316 451.914 633.845 449.758C617.988 447.371 608.71 436.357 608.502 418.335C608.294 402.855 622.419 388.915 637.514 389.3Z" fill="#EE885E"/>
<path d="M145.685 419.412C143.053 437.973 134.19 449.603 117.918 449.141C101.785 448.679 91.6064 436.972 92.0219 419.027C92.4374 401.082 102.962 389.838 119.095 390.223C135.437 390.454 143.607 402.777 145.685 419.412Z" fill="#EE885E"/>
<path d="M376.678 101.874C392.604 103.954 403.406 113.427 403.683 131.526C403.96 149.625 393.712 161.331 377.579 161.716C361.307 162.101 350.851 150.626 350.436 132.681C350.02 114.505 360.614 104.647 376.678 101.874Z" fill="#EE885E"/>
<path d="M248.997 189.132C247.197 206.769 238.749 218.706 222.546 219.092C206.344 219.477 195.888 208.155 195.473 190.287C195.057 172.342 205.305 160.636 221.369 160.174C237.641 159.635 246.504 171.264 248.997 189.132Z" fill="#EE885E"/>
<path d="M559.547 650.234C556.916 668.179 547.983 679.962 531.573 679.5C515.37 678.961 504.984 667.178 505.399 649.002C505.815 630.98 516.478 619.504 532.75 619.889C549.161 620.274 557.677 632.443 559.547 650.234Z" fill="#EE885E"/>
<path d="M531.709 159.174C547.704 161.254 558.575 170.804 558.921 188.98C559.267 207.156 548.95 218.939 532.679 219.402C516.337 219.864 505.743 208.311 505.328 190.289C504.982 171.959 515.645 162.101 531.709 159.174Z" fill="#EE885E"/>
<path d="M169.987 561.971C186.674 564.82 197.13 574.678 196.784 592.777C196.368 610.722 185.913 622.044 169.71 621.659C153.646 621.274 143.467 609.567 143.744 591.545C144.021 573.446 155.031 564.358 169.987 561.971Z" fill="#EE885E"/>
<path d="M584.265 277.549C568.27 275.393 557.399 265.843 557.122 247.667C556.845 229.491 567.162 217.707 583.365 217.322C599.706 216.937 610.231 228.49 610.646 246.512C611.062 264.765 600.398 274.7 584.265 277.549Z" fill="#EE885E"/>
<path d="M197.341 246.202C195.471 264.224 187.024 276.238 170.821 276.547C154.618 276.932 144.163 265.61 143.747 247.665C143.401 229.72 153.579 218.014 169.713 217.552C185.985 217.167 194.71 228.95 197.341 246.202Z" fill="#EE885E"/>
<path d="M611.339 592.856C608.708 610.492 599.983 621.429 583.78 622.353C569.032 623.2 554.768 606.179 556.845 590.16C559.061 572.523 569.032 561.356 585.165 562.28C601.16 563.127 609.677 575.142 611.339 592.856Z" fill="#EE885E"/>
<path d="M636.335 276.933C652.191 278.782 660.847 288.485 660.085 306.122C659.254 323.99 649.283 332.924 633.565 331.846C618.817 330.845 610.785 320.679 610.992 304.351C611.269 286.483 620.686 277.857 636.335 276.933Z" fill="#EE885E"/>
<path d="M636.269 562.588C619.721 560.894 610.65 551.806 610.927 534.246C611.135 516.763 620.275 506.982 635.993 507.213C651.711 507.444 660.435 517.61 660.366 535.016C660.228 552.807 650.464 561.048 636.269 562.588Z" fill="#EE885E"/>
<path d="M117.504 562.05C101.855 560.124 93.3381 550.42 94.2382 532.937C95.1384 515.223 105.109 506.52 120.62 507.676C135.23 508.754 143.054 518.843 142.777 535.094C142.569 552.885 133.083 561.202 117.504 562.05Z" fill="#EE885E"/>
<path d="M480.472 104.567C496.121 105.953 505.261 114.964 504.915 132.678C504.569 150.469 495.152 159.788 479.364 159.172C464.685 158.633 456.307 149.083 456.099 132.678C455.822 115.041 464.754 105.953 480.472 104.567Z" fill="#EE885E"/>
<path d="M120.138 332.076C103.589 330.998 94.2412 322.372 94.2412 304.658C94.3105 287.021 103.312 277.394 119.099 277.625C133.709 277.779 142.226 287.021 142.849 303.349C143.542 321.063 134.54 329.997 120.138 332.076Z" fill="#EE885E"/>
<path d="M505.467 707.226C503.597 725.864 494.803 735.491 478.947 734.49C462.883 733.488 454.989 722.244 456.028 704.838C456.997 688.434 466.206 679.654 480.885 679.885C497.088 680.116 504.29 691.129 505.467 707.226Z" fill="#EE885E"/>
<path d="M274.474 734.796C257.718 733.179 248.786 723.937 249.271 706.3C249.755 688.509 259.31 679.344 275.028 680.037C289.708 680.653 297.879 690.434 298.086 706.762C298.363 724.784 288.808 733.179 274.474 734.796Z" fill="#EE885E"/>
<path d="M298.296 133.22C296.565 150.625 287.841 160.098 272.123 159.097C256.197 158.096 248.372 147.005 249.411 129.754C250.38 113.503 259.451 104.8 274.061 105.108C290.056 105.417 297.534 115.891 298.296 133.22Z" fill="#EE885E"/>
<path d="M687.092 502.128C672.967 499.048 664.243 490.422 665.42 475.327C666.597 460.616 675.737 451.451 689.446 452.992C701.702 454.378 709.527 463.851 709.111 477.791C708.696 492.963 699.418 500.28 687.092 502.128Z" fill="#EE885E"/>
<path d="M66.8852 501.206C53.7292 499.666 45.2123 491.579 45.5585 476.33C45.8355 462.467 53.9369 453.533 66.4005 453.456C80.0412 453.379 88.3504 462.775 88.1427 477.947C87.8657 491.81 79.7643 499.512 66.8852 501.206Z" fill="#EE885E"/>
<path d="M428.122 50.2715C440.17 51.1957 448.964 58.1273 450.141 72.0674C451.457 87.4707 443.425 97.5598 429.853 98.407C416.212 99.2542 407.419 89.7813 407.28 74.532C407.142 60.5149 415.243 52.582 428.122 50.2715Z" fill="#EE885E"/>
<path d="M709.594 361.267C708.278 375.9 701.284 386.144 687.713 386.452C674.141 386.76 665.556 377.055 665.417 361.96C665.279 348.097 673.449 338.701 685.705 337.777C699.346 336.776 707.032 346.249 709.594 361.267Z" fill="#EE885E"/>
<path d="M66.2669 338.084C78.1766 338.931 86.832 345.709 88.0091 359.649C89.2554 374.898 81.5006 384.91 67.9291 385.757C54.3576 386.605 45.702 377.286 45.5636 362.113C45.4251 348.173 53.3186 340.163 66.2669 338.084Z" fill="#EE885E"/>
<path d="M347.455 764.14C346.071 778.696 339.077 788.708 325.505 788.785C312.072 788.862 303.556 779.235 303.625 764.217C303.625 750.431 311.726 741.266 323.982 740.496C337.554 739.726 345.17 749.045 347.455 764.14Z" fill="#EE885E"/>
<path d="M347.177 74.1458C346.208 87.7007 339.699 97.3278 327.235 98.406C313.525 99.5613 304.385 90.5504 303.901 75.3781C303.416 60.1287 312.072 50.5787 325.781 50.6557C338.384 50.7328 345.377 59.8977 347.177 74.1458Z" fill="#EE885E"/>
<path d="M428.821 789.324C415.526 787.398 406.732 779.234 407.078 764.216C407.425 749.275 416.287 740.033 429.79 740.572C442.046 741.034 450.217 750.199 450.493 763.908C450.77 779.003 442.184 787.167 428.821 789.324Z" fill="#EE885E"/>
<path d="M635.368 671.721C622.628 670.566 615.427 662.941 616.05 648.385C616.604 635.138 623.736 627.821 635.645 627.975C648.802 628.129 655.657 636.601 655.172 651.003C654.687 664.327 647.347 670.874 635.368 671.721Z" fill="#EE885E"/>
<path d="M582.048 110.114C595.896 110.884 603.444 117.892 603.305 132.449C603.167 145.618 596.519 153.32 584.679 153.628C571.731 153.936 564.46 146.158 564.46 131.678C564.391 118.277 571.661 111.885 582.048 110.114Z" fill="#EE885E"/>
<path d="M584.128 685.122C596.107 686.278 603.239 693.055 603.446 706.379C603.654 720.935 596.522 729.022 583.435 728.868C571.526 728.714 564.602 721.166 564.325 707.842C564.048 693.286 571.457 685.969 584.128 685.122Z" fill="#EE885E"/>
<path d="M633.842 167.489C647.691 168.259 655.307 175.268 655.169 189.978C655.03 203.225 648.314 211.004 636.404 211.312C623.317 211.62 616.047 203.764 616.047 189.131C615.978 175.73 623.248 169.183 633.842 167.489Z" fill="#EE885E"/>
<path d="M189.652 132.601C188.474 145.617 182.381 153.473 170.402 153.396C157.246 153.319 150.391 144.693 151.153 130.368C151.845 117.198 159.393 110.189 171.233 110.806C183.212 111.422 188.959 119.508 189.652 132.601Z" fill="#EE885E"/>
<path d="M119.308 627.973C131.079 629.436 138.072 636.445 137.796 649.846C137.588 664.71 129.625 672.104 116.677 671.102C104.698 670.178 98.6043 661.552 99.2275 648.305C99.9892 634.828 107.468 628.512 119.308 627.973Z" fill="#EE885E"/>
<path d="M550.616 73.8377C549.646 85.6983 544.038 93.9389 533.375 94.555C521.465 95.2482 513.987 87.1615 514.125 73.9917C514.264 62.1311 521.326 54.5834 532.059 54.5064C542.93 54.4294 548.746 62.2082 550.616 73.8377Z" fill="#EE885E"/>
<path d="M240.273 74.6858C238.75 86.3154 233.072 94.4022 222.409 94.4792C210.707 94.5562 203.367 86.2383 204.059 73.2225C204.683 61.67 211.884 54.1993 222.547 54.6614C233.28 55.1235 238.819 63.0563 240.273 74.6858Z" fill="#EE885E"/>
<path d="M170.194 685.427C182.034 686.351 189.305 693.052 189.513 706.452C189.721 721.163 182.312 729.172 169.156 728.556C157.177 728.017 150.737 719.853 150.945 706.606C151.222 693.128 158.354 686.428 170.194 685.427Z" fill="#EE885E"/>
<path d="M687.164 612.955C675.808 611.183 668.399 604.252 669.022 590.928C669.576 579.067 676.5 571.597 687.233 571.751C699.073 571.982 706.136 580.068 705.582 593.315C705.166 605.33 697.965 611.568 687.164 612.955Z" fill="#EE885E"/>
<path d="M65.4375 571.677C76.8625 573.063 84.2023 579.302 84.687 591.008C85.1717 604.024 77.9013 612.342 66.1302 612.034C55.6053 611.803 48.9582 603.87 48.8889 592.086C48.8889 579.995 56.3668 574.219 65.4375 571.677Z" fill="#EE885E"/>
<path d="M119.302 211.391C106.354 209.851 99.291 202.996 99.4295 189.672C99.568 175.039 107.323 167.415 120.202 168.339C132.043 169.186 138.205 177.658 137.72 190.751C137.166 204.306 129.411 210.082 119.302 211.391Z" fill="#EE885E"/>
<path d="M686.124 267.767C675.114 265.149 667.844 257.986 669.159 244.816C670.336 233.341 677.469 225.947 688.132 226.871C699.765 227.872 706.55 236.344 705.373 249.36C704.335 260.913 696.995 266.997 686.124 267.767Z" fill="#EE885E"/>
<path d="M240.411 765.526C238.472 777.156 232.656 784.935 221.785 784.781C211.052 784.627 203.989 777.079 203.92 765.141C203.851 751.894 211.329 743.885 223.239 744.655C233.902 745.348 239.511 753.589 240.411 765.526Z" fill="#EE885E"/>
<path d="M530.951 743.806C543.346 745.732 550.824 752.509 550.339 765.679C549.924 777.385 542.999 784.933 532.405 784.856C520.703 784.779 513.641 776.692 513.987 763.6C514.264 751.739 521.881 746.117 530.951 743.806Z" fill="#EE885E"/>
<path d="M84.9634 247.667C82.9554 259.45 77.0701 267.306 66.1991 266.844C55.5358 266.305 48.6806 258.449 49.096 246.434C49.5115 234.574 56.6436 226.949 67.4454 227.411C78.2472 227.796 83.7863 235.96 84.9634 247.667Z" fill="#EE885E"/>
<path d="M755.296 419.18C754.257 430.887 748.787 437.587 738.816 437.433C728.845 437.279 722.891 430.502 722.96 419.411C723.098 408.321 729.192 401.697 739.163 401.774C749.203 401.928 754.257 408.937 755.296 419.18Z" fill="#EE885E"/>
<path d="M494.666 820.133C494.32 830.684 490.166 836.768 482.134 837.615C472.994 838.617 466.9 833.225 466.623 822.751C466.277 812.354 471.816 806.577 481.164 806.732C489.473 806.809 493.212 813.124 494.666 820.133Z" fill="#EE885E"/>
<path d="M361.168 822.518C362.623 810.119 368.508 804.034 378.41 804.959C388.519 805.883 393.505 813.507 392.535 824.444C391.635 834.148 385.749 839.847 376.748 839.539C366.569 839.231 361.999 832.068 361.168 822.518Z" fill="#EE885E"/>
<path d="M287.702 822.058C286.732 831.839 282.024 837.923 272.815 837.461C264.852 837.076 259.936 831.377 259.936 822.52C259.936 812.354 265.406 806.5 274.546 806.886C282.508 807.271 286.663 813.124 287.702 822.058Z" fill="#EE885E"/>
<path d="M287.495 17.1544C286.387 26.0113 282.164 32.0187 274.062 32.0957C264.853 32.1727 259.383 25.7802 260.076 15.614C260.699 6.91107 266.1 1.36586 274.339 1.90498C282.441 2.4441 286.595 8.37448 287.495 17.1544Z" fill="#EE885E"/>
<path d="M392.606 17.1541C391.29 29.6308 385.059 35.176 375.088 34.0208C366.017 33.0195 361.239 26.242 361.793 16.1528C362.417 4.52327 369.064 -0.944824 379.104 0.133412C388.175 1.05761 392.329 8.06608 392.606 17.1541Z" fill="#EE885E"/>
<path d="M494.665 16.4601C493.003 27.5505 487.878 33.4038 478.808 32.3255C471.053 31.4013 466.136 25.4711 466.69 16.5372C467.314 6.37096 473.061 0.902736 482.132 1.82694C490.095 2.59711 493.695 9.14349 494.665 16.4601Z" fill="#EE885E"/>
<path d="M29.0094 304.582C28.04 313.439 23.8159 319.523 15.7146 319.677C6.50539 319.908 0.96616 313.516 1.58934 303.349C2.14328 294.569 7.47471 289.101 15.6453 289.486C23.8159 289.871 27.9708 295.802 29.0094 304.582Z" fill="#EE885E"/>
<path d="M753.359 302.965C752.666 314.286 748.096 320.217 738.818 320.294C730.716 320.294 725.662 315.21 724.969 306.353C724.208 296.341 728.708 289.795 737.987 289.025C747.404 288.255 751.905 294.416 753.359 302.965Z" fill="#EE885E"/>
<path d="M30.3976 419.72C29.7745 430.502 24.5123 436.818 14.2645 436.433C5.19376 436.048 0.0698535 430.04 0.00061128 420.028C-0.068631 408.63 5.74763 402.545 15.9262 402.93C25.0662 403.161 29.7052 409.323 30.3976 419.72Z" fill="#EE885E"/>
<path d="M29.0102 535.016C27.7638 543.796 23.4706 549.804 15.3692 549.726C6.16 549.649 0.759237 543.18 1.65939 532.937C2.42105 524.311 7.96019 518.766 16.1308 519.536C24.0936 520.229 28.2485 526.159 29.0102 535.016Z" fill="#EE885E"/>
<path d="M753.289 534.323C752.666 544.336 748.165 550.266 738.818 550.343C730.716 550.343 725.662 545.26 724.969 536.403C724.208 526.391 728.708 519.767 737.987 519.074C747.196 518.381 752.182 524.08 753.289 534.323Z" fill="#EE885E"/>
</g>
</svg>
