<svg width="29" height="28" viewBox="0 0 29 28" fill="none" xmlns="http://www.w3.org/2000/svg">
<g clip-path="url(#clip0_167_485)">
<path d="M10.1168 8.56333L2.67347 9.6425L2.54164 9.66933C2.34207 9.72231 2.16013 9.82731 2.01441 9.9736C1.86869 10.1199 1.76441 10.3022 1.71221 10.502C1.66001 10.7018 1.66177 10.9118 1.7173 11.1107C1.77284 11.3096 1.88016 11.4902 2.0283 11.634L7.42064 16.8828L6.14897 24.297L6.1338 24.4253C6.12159 24.6317 6.16445 24.8377 6.258 25.0221C6.35154 25.2065 6.49242 25.3627 6.6662 25.4748C6.83997 25.5868 7.04041 25.6507 7.24698 25.6598C7.45355 25.6689 7.65883 25.623 7.8418 25.5267L14.4988 22.0267L21.1406 25.5267L21.2573 25.5803C21.4499 25.6562 21.6592 25.6794 21.8637 25.6477C22.0682 25.616 22.2606 25.5304 22.4212 25.3998C22.5817 25.2692 22.7046 25.0982 22.7773 24.9044C22.8499 24.7106 22.8697 24.501 22.8346 24.297L21.5618 16.8828L26.9565 11.6328L27.0475 11.5337C27.1775 11.3736 27.2627 11.1819 27.2945 10.9781C27.3263 10.7743 27.3035 10.5658 27.2284 10.3737C27.1534 10.1816 27.0287 10.0128 26.8672 9.8846C26.7057 9.75636 26.5131 9.67323 26.309 9.64367L18.8656 8.56333L15.5383 1.82C15.442 1.62462 15.293 1.4601 15.108 1.34506C14.9231 1.23001 14.7096 1.16904 14.4918 1.16904C14.274 1.16904 14.0605 1.23001 13.8756 1.34506C13.6906 1.4601 13.5416 1.62462 13.4453 1.82L10.1168 8.56333Z" fill="#FB8501"/>
</g>
<defs>
<clipPath id="clip0_167_485">
<rect width="28" height="28" fill="white" transform="translate(0.5)"/>
</clipPath>
</defs>
</svg>
